<svg xmlns="http://www.w3.org/2000/svg" width="339" height="340" viewBox="0 0 339 340">
  <g id="Group_11016" data-name="Group 11016" transform="translate(-38 -97)">
    <ellipse id="Ellipse_3663" data-name="Ellipse 3663" cx="169.5" cy="170" rx="169.5" ry="170" transform="translate(38 97)" fill="#150578" opacity="0.05"/>
    <path id="Path_12437" data-name="Path 12437" d="M722.6,274.341h-.051l-29.051,12.4-39.747,16.972a1.282,1.282,0,0,1-.982.005L611.765,286.71,582,274.361l-.045-.02H581.9a1.773,1.773,0,0,0-1.771,1.771v76.929a1.773,1.773,0,0,0,1.771,1.771H722.6a1.773,1.773,0,0,0,1.771-1.771V276.112A1.773,1.773,0,0,0,722.6,274.341Z" transform="translate(-446.221 -22.867)" fill="#fff"/>
    <path id="Path_12438" data-name="Path 12438" d="M724.393,203.248a.253.253,0,0,1-.145-.045l-69.984-48.739a1.269,1.269,0,0,0-1.45,0L583.334,203.2a.253.253,0,0,1-.291-.414l69.48-48.736a1.777,1.777,0,0,1,2.029,0l69.984,48.739a.253.253,0,0,1-.145.461Z" transform="translate(-447.885 48.732)" fill="#3f3d56"/>
    <path id="Path_12439" data-name="Path 12439" d="M435.67,61.784l66.3-49.139L568.779,65.28l-63.39,37.578-34.415-7.844Z" transform="translate(-296.25 191.924)" fill="#e6e6e6"/>
    <path id="Path_12440" data-name="Path 12440" d="M637.623,433.566H604.868a1.53,1.53,0,0,1,0-3.061h32.76a1.53,1.53,0,1,1,0,3.061Z" transform="translate(-459.994 -115.573)" fill="#6c63ff"/>
    <path id="Path_12441" data-name="Path 12441" d="M616.62,417.375H604.868a1.53,1.53,0,0,1,0-3.061H616.62a1.53,1.53,0,1,1,0,3.061Z" transform="translate(-459.995 -105.961)" fill="#6c63ff"/>
    <path id="Path_12442" data-name="Path 12442" d="M698.347,242.022a1.915,1.915,0,0,1-.726-.142L656.73,224.913V171.8a1.773,1.773,0,0,1,1.771-1.771h78.447a1.774,1.774,0,0,1,1.771,1.771V224.95l-.077.033L699.1,241.872A1.927,1.927,0,0,1,698.347,242.022Z" transform="translate(-491.692 39.055)" fill="#fff"/>
    <path id="Path_12443" data-name="Path 12443" d="M698.162,241.963a2.042,2.042,0,0,1-.774-.151l-40.97-17V171.618a1.9,1.9,0,0,1,1.9-1.9h78.447a1.9,1.9,0,0,1,1.9,1.9v53.23L698.96,241.8A2.051,2.051,0,0,1,698.162,241.963Zm-41.238-17.489,40.656,16.87a1.548,1.548,0,0,0,1.181-.007l39.392-16.823v-52.9a1.393,1.393,0,0,0-1.392-1.392H658.316a1.393,1.393,0,0,0-1.392,1.392Z" transform="translate(-491.507 39.24)" fill="#3f3d56"/>
    <path id="Path_12444" data-name="Path 12444" d="M721.668,274.341h-.051l-29.051,12.4L652.82,303.718a1.282,1.282,0,0,1-.982.005L610.831,286.71l-29.764-12.349-.045-.02h-.051a1.773,1.773,0,0,0-1.771,1.771v76.929a1.773,1.773,0,0,0,1.771,1.771h140.7a1.773,1.773,0,0,0,1.771-1.771V276.112A1.773,1.773,0,0,0,721.668,274.341Zm1.265,78.7a1.266,1.266,0,0,1-1.265,1.265H580.97a1.266,1.266,0,0,1-1.265-1.265V276.112a1.268,1.268,0,0,1,1.217-1.265l29.909,12.41,40.813,16.934a1.8,1.8,0,0,0,1.377-.008l39.547-16.889,29.152-12.448a1.269,1.269,0,0,1,1.215,1.265Z" transform="translate(-445.666 -22.867)" fill="#3f3d56"/>
    <path id="Path_12445" data-name="Path 12445" d="M699.857,212.972H672.021a2.024,2.024,0,0,1,0-4.049h27.836a2.024,2.024,0,0,1,0,4.049Z" transform="translate(-499.567 15.968)" fill="#6c63ff"/>
    <path id="Path_12446" data-name="Path 12446" d="M685.432,191.8H672.021a2.024,2.024,0,0,1,0-4.049h13.412a2.024,2.024,0,1,1,0,4.049Z" transform="translate(-499.567 28.537)" fill="#6c63ff"/>
    <path id="Path_12447" data-name="Path 12447" d="M743.783,262.791H701.269a2.024,2.024,0,0,1,0-4.049h42.513a2.024,2.024,0,0,1,0,4.049Z" transform="translate(-516.931 -13.607)" fill="#ccc"/>
    <path id="Path_12448" data-name="Path 12448" d="M743.783,285.832H701.269a2.024,2.024,0,0,1,0-4.049h42.513a2.024,2.024,0,0,1,0,4.049Z" transform="translate(-516.931 -27.285)" fill="#ccc"/>
    <circle id="Ellipse_3784" data-name="Ellipse 3784" cx="19.25" cy="19.25" r="19.25" transform="translate(255.968 232.958)" fill="#6c63ff"/>
    <path id="Path_12449" data-name="Path 12449" d="M756.922,126.157l-5.761-7.408,3.35-2.606,2.728,3.508,9.216-9.729,3.082,2.92Z" transform="translate(-483.539 134.176)" fill="#fff"/>
  </g>
</svg>
