<svg xmlns="http://www.w3.org/2000/svg" xmlns:xlink="http://www.w3.org/1999/xlink" width="1920" height="1080" viewBox="0 0 1920 1080">
  <defs>
    <clipPath id="clip-App_not_supported_Final_1">
      <rect width="1920" height="1080"/>
    </clipPath>
  </defs>
  <g id="App_not_supported_Final_1" data-name="App not supported Final – 1" clip-path="url(#clip-App_not_supported_Final_1)">
    <rect width="1920" height="1080" fill="rgba(255,255,255,0)"/>
    <path id="Path_12701" data-name="Path 12701" d="M818.549,212.625c0,2.017-.065,4.025-.194,6.009a91.265,91.265,0,0,1-8.543,33.09c-.04.089-.081.178-.121.258-.226.484-.46.96-.7,1.436a91.771,91.771,0,0,1-80.022,50.861l.911,52.144L741.7,350.2l2.114,4.018L729.968,361.5l1.605,51.977h-8.89l2.75-109.187a91.393,91.393,0,0,1-64.671-28.137c-.581-.6-1.145-1.21-1.71-1.823-.024-.024-.041-.048-.057-.065a91.728,91.728,0,0,1-16.706-25.846c.089.105.186.194.274.3a91.7,91.7,0,0,1,43.48-118.17c.314-.153.645-.307.96-.468a91.772,91.772,0,0,1,118.9,36.1c.557.935,1.1,1.9,1.613,2.856A91.2,91.2,0,0,1,818.549,212.625Z" transform="translate(1171.615 666.526)" fill="#e5e5e5" opacity="0.43"/>
    <path id="Path_12525" data-name="Path 12525" d="M913.095,259.875c0,3.056-.1,6.1-.294,9.108a138.32,138.32,0,0,1-12.947,50.149c-.061.134-.122.269-.183.391-.342.734-.7,1.455-1.064,2.176a139.084,139.084,0,0,1-121.277,77.082l1.381,79.026,17.91-9.438,3.2,6.089L778.847,485.5l2.433,110.677H767.672l4.3-197.38a138.511,138.511,0,0,1-98.012-42.642c-.88-.9-1.736-1.834-2.591-2.763-.037-.036-.061-.073-.086-.1a139.018,139.018,0,0,1-25.319-39.171c.134.159.281.294.416.452a138.973,138.973,0,0,1,65.9-179.091c.476-.232.978-.465,1.455-.709a139.084,139.084,0,0,1,180.191,54.709c.844,1.418,1.663,2.873,2.445,4.328A138.216,138.216,0,0,1,913.095,259.875Z" transform="translate(-745.158 483.826)" fill="#e5e5e5" opacity="0.43"/>
    <g id="Group_11019" data-name="Group 11019" transform="translate(0 808.001)" opacity="0.73">
      <circle id="Ellipse_3785" data-name="Ellipse 3785" cx="22.961" cy="22.961" r="22.961" transform="translate(104.574 183.685)" fill="#f0f0f0"/>
      <path id="Path_12526" data-name="Path 12526" d="M355.191,557.635a22.962,22.962,0,0,0,38.259,24.3,22.963,22.963,0,1,1-38.259-24.3Z" transform="translate(-244.609 -366.326)" opacity="0.2"/>
      <path id="Path_12527" data-name="Path 12527" d="M247.176,402.139h.063l1.136,65.1h-2.4Z" transform="translate(-119.578 -195.494)" fill="#3f3d56"/>
      <circle id="Ellipse_3786" data-name="Ellipse 3786" cx="46.293" cy="46.293" r="46.293" transform="translate(34.786 94.202)" fill="#cacaca"/>
      <path id="Path_12528" data-name="Path 12528" d="M225.666,398.577A46.3,46.3,0,0,0,302.8,447.572a46.3,46.3,0,1,1-77.137-48.995Z" transform="translate(-178.768 -289.002)" opacity="0.2"/>
      <path id="Path_12529" data-name="Path 12529" d="M155.743,273.408h.127l2.289,131.248h-4.833Z" transform="translate(-74.538 -132.914)" fill="#3f3d56"/>
      <rect id="Rectangle_1250" data-name="Rectangle 1250" width="212.186" height="62.901" transform="translate(174.102 203.809)" fill="#f0f0f0"/>
      <rect id="Rectangle_1251" data-name="Rectangle 1251" width="24.741" height="49.901" transform="translate(267.825 216.809)" fill="#cacaca"/>
      <rect id="Rectangle_1252" data-name="Rectangle 1252" width="187.445" height="57.869" transform="translate(186.473 129.586)" fill="#f0f0f0"/>
      <path id="Path_12530" data-name="Path 12530" d="M695.068,355.593H469.616a1.887,1.887,0,0,1-1.308-3.247l61.616-59.226v-25.8a1.889,1.889,0,0,1,1.887-1.887h12.161a1.889,1.889,0,0,1,1.887,1.887V277.8l4.654-4.474a41.815,41.815,0,0,1,56.936-.947l88.88,79.92a1.887,1.887,0,0,1-1.262,3.29Z" transform="translate(-302.146 -222.443)" fill="#cacaca"/>
      <path id="Path_12531" data-name="Path 12531" d="M447.87,280.742h0a11.951,11.951,0,0,1,11.951,11.951v16.145h-23.9V292.693a11.951,11.951,0,0,1,11.951-11.951Z" transform="translate(-211.915 -136.479)" fill="#fff"/>
      <path id="Path_12532" data-name="Path 12532" d="M533.964,281.15h0A11.951,11.951,0,0,1,545.914,293.1v16.145h-23.9V293.1a11.951,11.951,0,0,1,11.951-11.951Z" transform="translate(-253.768 -136.677)" fill="#fff"/>
      <path id="Path_12533" data-name="Path 12533" d="M620.057,281.558h0a11.951,11.951,0,0,1,11.952,11.951v16.144h-23.9V293.509a11.951,11.951,0,0,1,11.951-11.951Z" transform="translate(-295.621 -136.876)" fill="#fff"/>
      <path id="Path_12534" data-name="Path 12534" d="M654.331,420.694h0a11.951,11.951,0,0,1,11.951,11.951V448.79h-23.9V432.645A11.951,11.951,0,0,1,654.331,420.694Z" transform="translate(-312.283 -204.514)" fill="#fff"/>
      <path id="Path_12535" data-name="Path 12535" d="M424.2,420.694h0a11.951,11.951,0,0,1,11.951,11.951V448.79h-23.9V432.645A11.951,11.951,0,0,1,424.2,420.694Z" transform="translate(-200.411 -204.514)" fill="#fff"/>
      <path id="Path_12536" data-name="Path 12536" d="M697.223,567.074l-39.8-17.612a1.676,1.676,0,0,0-.679-.143h-189.7a1.674,1.674,0,0,0-.632.123l-43.326,17.612a1.677,1.677,0,0,0,.632,3.231h11.241v57.869H433.7v5.871H686.561v-5.871h-2.1V570.286h12.08a1.677,1.677,0,0,0,.679-3.211Zm-16.113,61.08h-242.8V570.286h242.8Z" transform="translate(-279.935 -362.283)" fill="#cacaca"/>
      <rect id="Rectangle_1253" data-name="Rectangle 1253" width="30.612" height="5.032" transform="translate(220.23 170.052)" fill="#cacaca"/>
      <rect id="Rectangle_1254" data-name="Rectangle 1254" width="30.612" height="5.032" transform="translate(265.099 170.052)" fill="#cacaca"/>
      <rect id="Rectangle_1255" data-name="Rectangle 1255" width="30.612" height="5.032" transform="translate(309.968 170.052)" fill="#cacaca"/>
      <rect id="Rectangle_1256" data-name="Rectangle 1256" width="30.612" height="5.032" transform="translate(326.742 242.598)" fill="#cacaca"/>
      <rect id="Rectangle_1257" data-name="Rectangle 1257" width="30.612" height="5.032" transform="translate(208.069 242.598)" fill="#cacaca"/>
      <path id="Path_12537" data-name="Path 12537" d="M612.09,713.688H146.014a.514.514,0,1,1,0-1.028H612.09a.514.514,0,1,1,0,1.028Z" transform="translate(-145.5 -441.689)" fill="#3f3d56"/>
      <path id="Path_12538" data-name="Path 12538" d="M805.352,628.178l-.145-1.806c-.188-.709-1.958,1.515-2.169,1.563a5.254,5.254,0,0,0-1.7-.077c.076-3.24-.423-1.771-1.87-.309-4.665,2.365-2.954,9.835,2.357,9.873C806.668,637.7,809.077,631.122,805.352,628.178Z" transform="translate(-462.096 -399.519)" fill="#3f3d56"/>
      <path id="Path_12539" data-name="Path 12539" d="M806.291,643.944c1.932-.031,4.362,6.748-.216,6.783-2.369.018-6.562.48-6.562.48s-3.259-4.892-1.806-7.935Z" transform="translate(-462.379 -407.957)" fill="#3f3d56"/>
      <path id="Path_12540" data-name="Path 12540" d="M661,466.151v3.512h1.642l1.3-3.576" transform="translate(-321.333 -226.582)" fill="#3f3d56"/>
      <path id="Path_12541" data-name="Path 12541" d="M808.075,655.009c-.033-.037-1.775.079-1.706-.064v-3.512c.29-.47.057,3.493.128,3.448h1.533c.075-.044,1.209-3.642,1.369-3.572a.063.063,0,0,1,.036.033.064.064,0,0,1,0,.049C809.377,651.434,808.2,655.031,808.075,655.009Z" transform="translate(-466.77 -411.863)" fill="#fff"/>
      <path id="Path_12542" data-name="Path 12542" d="M814.852,657.558c.046.577-2.735.577-2.689,0C812.117,656.98,814.9,656.98,814.852,657.558Z" transform="translate(-469.588 -414.691)" fill="#3f3d56"/>
      <path id="Path_12543" data-name="Path 12543" d="M813.269,654.38c-.161.039-.7-2.625.947-3C812.61,652.234,813.438,654.211,813.269,654.38Z" transform="translate(-470.021 -411.897)" fill="#fff"/>
      <path id="Path_12544" data-name="Path 12544" d="M817.689,656.043c-.009-.013-.016-.027-.023-.04l-.21.008Z" transform="translate(-472.161 -414.146)" fill="#3f3d56"/>
      <path id="Path_12545" data-name="Path 12545" d="M824.349,651.379c-.946-1.407-2.773-.767-3.488.52-.848,1.553-4.47.4-4.018,2.483C819.1,653.9,825.8,655.538,824.349,651.379Z" transform="translate(-471.844 -411.511)" fill="#3f3d56"/>
      <path id="Path_12546" data-name="Path 12546" d="M802.122,645.34c-1.485.29-4.105-1.551-4.175-2.093a.064.064,0,0,1,.109-.067,4.708,4.708,0,0,0,2.009,1.623c1.252.634,3.539.649,6.575-.95A8.127,8.127,0,0,1,802.122,645.34Z" transform="translate(-462.673 -407.898)" fill="#fff"/>
      <path id="Path_12547" data-name="Path 12547" d="M806.195,640.6c-.336.1-.627-.705-.32-.448a.32.32,0,0,0,.32.32c.273.027.26-.272.384-.384C806.792,640.262,806.427,640.635,806.195,640.6Z" transform="translate(-466.468 -406.41)" fill="#fff"/>
      <path id="Path_12548" data-name="Path 12548" d="M804.407,654.83c-.127.017-1.025-3.207-1.085-3.256a.064.064,0,0,1,.042-.08,32.271,32.271,0,0,1,1.1,3.253.064.064,0,0,1-.061.083Z" transform="translate(-465.289 -411.953)" fill="#fff"/>
      <path id="Path_12549" data-name="Path 12549" d="M808.125,658.43c.046.577-2.735.577-2.689,0C805.39,657.852,808.172,657.852,808.125,658.43Z" transform="translate(-466.318 -415.115)" fill="#3f3d56"/>
      <path id="Path_12550" data-name="Path 12550" d="M803.89,658.3c.046.577-2.735.577-2.689,0C801.155,657.727,803.936,657.727,803.89,658.3Z" transform="translate(-464.259 -415.054)" fill="#3f3d56"/>
      <path id="Path_12551" data-name="Path 12551" d="M806.71,638.478c.016.254-1.041.254-1.024,0C805.669,638.223,806.726,638.223,806.71,638.478Z" transform="translate(-466.439 -405.533)" fill="#fff"/>
      <path id="Path_12552" data-name="Path 12552" d="M799.474,635.841a1.565,1.565,0,0,1,2.4,0,1.735,1.735,0,1,0-2.4,0Z" transform="translate(-463.159 -402.883)" fill="#fff"/>
      <path id="Path_12553" data-name="Path 12553" d="M808.592,635.841a1.566,1.566,0,0,1,2.4,0,1.735,1.735,0,1,0-2.4,0Z" transform="translate(-467.591 -402.883)" fill="#fff"/>
      <path id="Path_12554" data-name="Path 12554" d="M800.283,635.41a.6.6,0,1,1-.581.6A.6.6,0,0,1,800.283,635.41Z" transform="translate(-463.53 -404.135)" fill="#3f3d56"/>
      <path id="Path_12555" data-name="Path 12555" d="M809.4,635.41a.6.6,0,1,1-.581.6.6.6,0,0,1,.581-.6Z" transform="translate(-467.963 -404.135)" fill="#3f3d56"/>
      <path id="Path_12556" data-name="Path 12556" d="M811.059,639.108a.523.523,0,1,1-.509.523.523.523,0,0,1,.509-.523Z" transform="translate(-468.804 -405.933)" fill="#ff6584"/>
      <path id="Path_12557" data-name="Path 12557" d="M801.859,639.108a.523.523,0,1,1-.509.523.523.523,0,0,1,.509-.523Z" transform="translate(-464.331 -405.933)" fill="#ff6584"/>
      <path id="Path_12558" data-name="Path 12558" d="M402.895,215.26a.523.523,0,0,1-.521-.487,18.494,18.494,0,0,0-18.4-17.137c-.558,0-1.144.028-1.742.084a.523.523,0,0,1-.5-.261,21.976,21.976,0,0,0-40.187,4.78.521.521,0,0,1-.515.378l-.139,0c-.072,0-.145-.005-.218-.005a15.5,15.5,0,0,0-15.1,12.237.523.523,0,0,1-.512.415H290a.523.523,0,0,1,0-1.047h34.639a16.555,16.555,0,0,1,16.016-12.652,23.022,23.022,0,0,1,41.816-4.911c.515-.04,1.02-.06,1.505-.06a19.544,19.544,0,0,1,19.439,18.11.523.523,0,0,1-.485.559Z" transform="translate(-215.493 -185.34)" fill="#cbcbcb"/>
      <path id="Path_12559" data-name="Path 12559" d="M416.389,255.635H330.568a.523.523,0,1,1,0-1.047h85.821a.523.523,0,1,1,0,1.047Z" transform="translate(-235.214 -219.004)" fill="#cbcbcb"/>
      <path id="Path_12560" data-name="Path 12560" d="M344.074,270.4H315.292a.523.523,0,1,1,0-1.047h28.781a.523.523,0,0,1,0,1.047Z" transform="translate(-227.787 -226.183)" fill="#cbcbcb"/>
      <path id="Path_12561" data-name="Path 12561" d="M937.895,291.26a.523.523,0,0,1-.521-.487,18.5,18.5,0,0,0-18.394-17.137c-.558,0-1.144.028-1.742.084a.523.523,0,0,1-.5-.261,21.976,21.976,0,0,0-40.187,4.78.521.521,0,0,1-.515.378l-.139,0c-.072,0-.145,0-.218,0a15.5,15.5,0,0,0-15.1,12.237.523.523,0,0,1-.512.415H825a.523.523,0,1,1,0-1.047h34.639a16.555,16.555,0,0,1,16.016-12.652,23.022,23.022,0,0,1,41.816-4.911c.515-.04,1.02-.06,1.505-.06a19.544,19.544,0,0,1,19.439,18.11.523.523,0,0,1-.485.559Z" transform="translate(-475.575 -222.286)" fill="#cbcbcb"/>
      <path id="Path_12562" data-name="Path 12562" d="M951.387,331.635H865.568a.523.523,0,0,1,0-1.047h85.821a.523.523,0,0,1,0,1.047Z" transform="translate(-495.296 -255.951)" fill="#cbcbcb"/>
      <path id="Path_12563" data-name="Path 12563" d="M879.074,346.4H850.292a.523.523,0,0,1,0-1.047h28.781a.523.523,0,0,1,0,1.047Z" transform="translate(-487.869 -263.129)" fill="#cbcbcb"/>
      <path id="Path_438" data-name="Path 438" d="M324.547,685.635c6.632,1.9,6.711-7.469,7.766-11.686-3.749,2.553-10.07,6.192-7.742,11.572" transform="translate(-232.309 -422.87)" fill="#cacaca"/>
      <path id="Path_439" data-name="Path 439" d="M325.281,697.489c-.871-4.927-.926-11.168,3.909-14.081.231-.146.444.22.214.366-4.668,2.823-4.529,8.853-3.714,13.6a.212.212,0,0,1-.409.113Z" transform="translate(-232.677 -427.452)" fill="#3f3d56"/>
      <path id="Path_442" data-name="Path 442" d="M329.887,700.716c3.035,4.074,7.262-1.381,9.761-3.381-3.334-.177-8.659-.864-9.7,3.325" transform="translate(-235.137 -434.165)" fill="#cacaca"/>
      <path id="Path_443" data-name="Path 443" d="M324.044,707.057c1.716-3.284,4.455-7,8.632-6.529.271.023.2.442-.067.418-3.967-.411-6.548,3.157-8.178,6.284C324.3,707.465,323.909,707.295,324.044,707.057Z" transform="translate(-232.283 -435.771)" fill="#3f3d56"/>
      <path id="Path_438-2" data-name="Path 438" d="M973.418,685.635c-6.632,1.9-6.711-7.469-7.766-11.686,3.749,2.553,10.069,6.192,7.742,11.572" transform="translate(-544.204 -422.87)" fill="#cacaca"/>
      <path id="Path_439-2" data-name="Path 439" d="M976.059,697.489c.871-4.927.926-11.168-3.909-14.081-.231-.146-.444.22-.214.366,4.668,2.823,4.529,8.853,3.714,13.6a.212.212,0,0,0,.409.113Z" transform="translate(-547.211 -427.452)" fill="#3f3d56"/>
      <path id="Path_442-2" data-name="Path 442" d="M966.642,700.716c-3.035,4.074-7.261-1.381-9.761-3.381,3.334-.177,8.659-.864,9.7,3.325" transform="translate(-539.94 -434.165)" fill="#cacaca"/>
      <path id="Path_443-2" data-name="Path 443" d="M973.364,707.057c-1.715-3.284-4.455-7-8.632-6.529-.271.023-.2.442.067.418,3.967-.411,6.548,3.157,8.177,6.284C973.11,707.465,973.5,707.295,973.364,707.057Z" transform="translate(-543.673 -435.771)" fill="#3f3d56"/>
      <path id="Path_438-3" data-name="Path 438" d="M1022.233,664.681c-11.561,3.319-11.7-13.02-13.538-20.372,6.535,4.45,17.553,10.794,13.5,20.173" transform="translate(-565.129 -408.461)" fill="#cacaca"/>
      <path id="Path_439-3" data-name="Path 439" d="M1026.828,685.347c1.519-8.59,1.615-19.469-6.814-24.545-.4-.254-.773.384-.372.637,8.137,4.922,7.9,15.432,6.474,23.711a.37.37,0,0,0,.712.2Z" transform="translate(-570.367 -416.45)" fill="#3f3d56"/>
      <path id="Path_442-3" data-name="Path 442" d="M1010.413,690.973c-5.291,7.1-12.658-2.407-17.015-5.893,5.811-.309,15.094-1.507,16.9,5.8" transform="translate(-557.693 -428.153)" fill="#cacaca"/>
      <path id="Path_443-3" data-name="Path 443" d="M1022.13,702.026c-2.99-5.725-7.766-12.2-15.047-11.382-.473.041-.355.77.117.729,6.916-.716,11.415,5.5,14.255,10.954C1021.688,702.736,1022.366,702.44,1022.13,702.026Z" transform="translate(-564.199 -430.952)" fill="#3f3d56"/>
      <path id="Path_12564" data-name="Path 12564" d="M79.9,517.994h1.953l.929-7.532H79.9Z" transform="translate(-38.841 -248.154)" fill="#ffb6b6"/>
      <path id="Path_12565" data-name="Path 12565" d="M224.429,709.219h3.846a2.451,2.451,0,0,1,2.451,2.451v.08h-6.3Z" transform="translate(-183.87 -440.016)" fill="#2f2e41"/>
      <path id="Path_12566" data-name="Path 12566" d="M97.877,517.994h1.953l.929-7.532H97.876Z" transform="translate(-47.581 -248.154)" fill="#ffb6b6"/>
      <path id="Path_12567" data-name="Path 12567" d="M242.407,709.219h3.846a2.451,2.451,0,0,1,2.451,2.451v.08h-6.3Z" transform="translate(-192.61 -440.016)" fill="#2f2e41"/>
      <path id="Path_12568" data-name="Path 12568" d="M243.809,626.562a1.711,1.711,0,0,0-.4-2.593l-3.178-15.258-3.462,1.364,4.212,14.569a1.72,1.72,0,0,0,2.828,1.918Z" transform="translate(-189.869 -391.155)" fill="#ffb6b6"/>
      <path id="Path_12569" data-name="Path 12569" d="M219.58,636.791l-1.439,1.461a20.921,20.921,0,0,0,1.41,12.629l1.975,20.221,3.554.268,1.061-23.525,4.895,7.809-.855,15.633,3.928-.09,1.775-17.322L231.035,635.8Z" transform="translate(-180.617 -404.324)" fill="#2f2e41"/>
      <path id="Path_12570" data-name="Path 12570" d="M224.9,620.524a55.112,55.112,0,0,1-6.483-.428l-.087-.011,2.145-9.427-.739-12.129,6.975-.239a2.563,2.563,0,0,1,2.629,2.192l1.427,9.677,1.32,8.586-.018.026C231.124,620.161,227.952,620.524,224.9,620.524Z" transform="translate(-180.907 -386.088)" fill="#cacaca"/>
      <path id="Path_12571" data-name="Path 12571" d="M233.408,600.139l1.417-1.777s2.484-1.7,3.271,1.942,2.247,9.551,2.247,9.551l-4.858.393Z" transform="translate(-188.235 -385.932)" fill="#cacaca"/>
      <path id="Path_12572" data-name="Path 12572" d="M206.873,626.872a1.711,1.711,0,0,1,.4-2.593l3.178-15.258,3.462,1.364L209.7,624.954a1.72,1.72,0,0,1-2.828,1.918Z" transform="translate(-175.129 -391.306)" fill="#ffb6b6"/>
      <path id="Path_12573" data-name="Path 12573" d="M217.775,600.449l-1.417-1.776s-2.484-1.7-3.271,1.942-2.247,9.551-2.247,9.551l4.858.393Z" transform="translate(-177.264 -386.083)" fill="#cacaca"/>
      <path id="Path_12574" data-name="Path 12574" d="M226.54,585.345H217.3a.718.718,0,0,1-.717-.717v-3.982a5.336,5.336,0,1,1,10.672,0v3.982A.718.718,0,0,1,226.54,585.345Z" transform="translate(-180.056 -374.918)" fill="#2f2e41"/>
      <circle id="Ellipse_3787" data-name="Ellipse 3787" cx="3.912" cy="3.912" r="3.912" transform="translate(38.972 202.363)" fill="#ffb6b6"/>
      <path id="Path_12575" data-name="Path 12575" d="M231.069,582.4H225.42l-.058-.811-.29.811h-.87l-.115-1.608-.574,1.608h-1.683v-.08a4.226,4.226,0,0,1,4.221-4.221h.8a4.226,4.226,0,0,1,4.221,4.221Z" transform="translate(-182.607 -376.274)" fill="#2f2e41"/>
      <path id="Path_12576" data-name="Path 12576" d="M224.693,589.116a.731.731,0,0,1-.127-.011l-4.136-.73v-6.836h4.553l-.113.131c-1.568,1.829-.387,4.8.457,6.4a.706.706,0,0,1-.056.75.714.714,0,0,1-.578.3Z" transform="translate(-181.926 -377.946)" fill="#2f2e41"/>
    </g>
    <g id="Group_11029" data-name="Group 11029" transform="translate(1494.692 832.338)" opacity="0.73">
      <ellipse id="Ellipse_3785-2" data-name="Ellipse 3785" cx="20.906" cy="20.906" rx="20.906" ry="20.906" transform="translate(288.278 167.25)" fill="#f0f0f0"/>
      <path id="Path_12526-2" data-name="Path 12526" d="M384.208,557.635a20.908,20.908,0,0,1-34.836,22.127,20.908,20.908,0,1,0,34.836-22.127Z" transform="translate(-59.587 -383.443)" opacity="0.2"/>
      <path id="Path_12527-2" data-name="Path 12527" d="M247.068,402.139h-.057l-1.034,59.273h2.183Z" transform="translate(62.059 -213.984)" fill="#3f3d56"/>
      <ellipse id="Ellipse_3786-2" data-name="Ellipse 3786" cx="42.151" cy="42.151" rx="42.151" ry="42.151" transform="translate(309.333 85.774)" fill="#cacaca"/>
      <path id="Path_12528-2" data-name="Path 12528" d="M284.17,398.577a42.154,42.154,0,0,1-70.235,44.611,42.154,42.154,0,1,0,70.235-44.611Z" transform="translate(98.437 -298.806)" opacity="0.2"/>
      <path id="Path_12529-2" data-name="Path 12529" d="M155.527,273.408h-.116l-2.084,119.5h4.4Z" transform="translate(195.841 -145.484)" fill="#3f3d56"/>
      <rect id="Rectangle_1250-2" data-name="Rectangle 1250" width="169.2" height="79.655" transform="translate(82.212 163.682)" fill="#f0f0f0"/>
      <rect id="Rectangle_1251-2" data-name="Rectangle 1251" width="22.527" height="45.436" transform="translate(158.92 197.41)" fill="#cacaca"/>
      <path id="Path_12534-2" data-name="Path 12534" d="M653.262,420.694h0a10.882,10.882,0,0,0-10.882,10.882v14.7h21.763v-14.7A10.882,10.882,0,0,0,653.262,420.694Z" transform="translate(-539.396 -223.857)" fill="#fff"/>
      <path id="Path_12535-2" data-name="Path 12535" d="M423.136,420.694h0a10.882,10.882,0,0,0-10.882,10.882v14.7h21.763v-14.7A10.882,10.882,0,0,0,423.136,420.694Z" transform="translate(-201.597 -223.857)" fill="#fff"/>
      <path id="Path_12536-2" data-name="Path 12536" d="M422.88,580.873,456.4,558.8a1.033,1.033,0,0,1,.572-.18l84.318-46.826,75.42,46.826a1.021,1.021,0,0,1,.532.155l36.483,22.073a2.427,2.427,0,0,1,.854,2.351c-.13.987-.711,1.7-1.386,1.7h-9.466v72.525h1.059v7.358H431.858v-7.358h1.766V584.9H423.451c-.668,0-1.244-.7-1.382-1.668A2.47,2.47,0,0,1,422.88,580.873Zm13.568,76.55H640.9V584.9H436.448Z" transform="translate(-370.914 -417.119)" fill="#cacaca"/>
      <rect id="Rectangle_1256-2" data-name="Rectangle 1256" width="27.873" height="4.582" transform="translate(99.93 220.892)" fill="#cacaca"/>
      <rect id="Rectangle_1257-2" data-name="Rectangle 1257" width="27.873" height="4.582" transform="translate(207.984 220.892)" fill="#cacaca"/>
      <path id="Path_12537-2" data-name="Path 12537" d="M145.968,713.6H570.34a.468.468,0,1,0,0-.936H145.968a.468.468,0,0,0,0,.936Z" transform="translate(-145.5 -465.934)" fill="#3f3d56"/>
      <path id="Path_12538-2" data-name="Path 12538" d="M798.407,627.975l.132-1.644c.171-.645,1.783,1.379,1.975,1.423a4.782,4.782,0,0,1,1.548-.07c-.069-2.951.385-1.613,1.7-.281,4.247,2.153,2.69,8.955-2.146,8.99C797.21,636.65,795.016,630.656,798.407,627.975Z" transform="translate(-685.641 -419.775)" fill="#3f3d56"/>
      <path id="Path_12539-2" data-name="Path 12539" d="M799.519,643.884c-1.759-.028-3.971,6.144.2,6.176,2.156.017,5.974.437,5.974.437s2.968-4.454,1.644-7.225Z" transform="translate(-687.35 -429.012)" fill="#3f3d56"/>
      <path id="Path_12540-2" data-name="Path 12540" d="M663.677,466.146v3.2h-1.495L661,466.087" transform="translate(-547.64 -248.011)" fill="#3f3d56"/>
      <path id="Path_12541-2" data-name="Path 12541" d="M807.612,654.677c.03-.034,1.617.072,1.553-.058v-3.2c-.264-.428-.052,3.181-.117,3.14h-1.4c-.069-.04-1.1-3.316-1.247-3.253a.057.057,0,0,0-.033.03.058.058,0,0,0,0,.045C806.426,651.423,807.5,654.7,807.612,654.677Z" transform="translate(-693.069 -433.287)" fill="#fff"/>
      <path id="Path_12542-2" data-name="Path 12542" d="M812.163,657.519c-.042.526,2.49.526,2.448,0C814.654,656.993,812.121,656.993,812.163,657.519Z" transform="translate(-701.226 -436.383)" fill="#3f3d56"/>
      <path id="Path_12543-2" data-name="Path 12543" d="M813.917,654.111c.146.036.64-2.39-.862-2.733C814.516,652.157,813.763,653.958,813.917,654.111Z" transform="translate(-701.143 -433.325)" fill="#fff"/>
      <path id="Path_12544-2" data-name="Path 12544" d="M817.456,656.04c.008-.012.014-.024.021-.036l.191.007Z" transform="translate(-706.759 -435.786)" fill="#3f3d56"/>
      <path id="Path_12545-2" data-name="Path 12545" d="M816.989,651.308c.861-1.281,2.525-.7,3.175.473.772,1.414,4.07.362,3.659,2.261C821.764,653.607,815.669,655.094,816.989,651.308Z" transform="translate(-712.644 -432.902)" fill="#3f3d56"/>
      <path id="Path_12546-2" data-name="Path 12546" d="M802.052,645.144c1.353.264,3.738-1.412,3.8-1.906a.058.058,0,0,0-.1-.061,4.287,4.287,0,0,1-1.829,1.478c-1.14.577-3.222.591-5.986-.865A7.4,7.4,0,0,0,802.052,645.144Z" transform="translate(-685.82 -428.947)" fill="#fff"/>
      <path id="Path_12547-2" data-name="Path 12547" d="M806.154,640.557c.306.1.571-.642.291-.408a.292.292,0,0,1-.291.292c-.249.025-.237-.247-.35-.35C805.61,640.246,805.942,640.586,806.154,640.557Z" transform="translate(-690.174 -427.319)" fill="#fff"/>
      <path id="Path_12548-2" data-name="Path 12548" d="M803.377,654.532c.116.016.934-2.92.988-2.965a.058.058,0,0,0-.038-.073,29.381,29.381,0,0,0-1.006,2.962.059.059,0,0,0,.056.076Z" transform="translate(-686.844 -433.386)" fill="#fff"/>
      <path id="Path_12549-2" data-name="Path 12549" d="M805.436,658.391c-.042.526,2.49.526,2.448,0C807.926,657.865,805.394,657.865,805.436,658.391Z" transform="translate(-691.351 -436.847)" fill="#3f3d56"/>
      <path id="Path_12550-2" data-name="Path 12550" d="M801.2,658.266c-.042.526,2.49.526,2.448,0C803.691,657.74,801.159,657.74,801.2,658.266Z" transform="translate(-685.135 -436.78)" fill="#3f3d56"/>
      <path id="Path_12551-2" data-name="Path 12551" d="M805.686,638.46c-.015.231.948.231.933,0C806.633,638.229,805.671,638.229,805.686,638.46Z" transform="translate(-690.202 -426.359)" fill="#fff"/>
      <path id="Path_12552-2" data-name="Path 12552" d="M801.621,635.572a1.425,1.425,0,0,0-2.182,0,1.58,1.58,0,1,1,2.182,0Z" transform="translate(-682.536 -423.458)" fill="#fff"/>
      <path id="Path_12553-2" data-name="Path 12553" d="M810.739,635.572a1.426,1.426,0,0,0-2.182,0,1.58,1.58,0,1,1,2.182,0Z" transform="translate(-695.92 -423.458)" fill="#fff"/>
      <path id="Path_12554-2" data-name="Path 12554" d="M800.231,635.41a.544.544,0,1,0,.529.544A.544.544,0,0,0,800.231,635.41Z" transform="translate(-681.544 -424.828)" fill="#3f3d56"/>
      <path id="Path_12555-2" data-name="Path 12555" d="M809.349,635.41a.544.544,0,1,0,.529.544.544.544,0,0,0-.529-.544Z" transform="translate(-694.928 -424.828)" fill="#3f3d56"/>
      <path id="Path_12556-2" data-name="Path 12556" d="M811.014,639.108a.476.476,0,1,0,.464.476.477.477,0,0,0-.464-.476Z" transform="translate(-697.337 -426.796)" fill="#ff6584"/>
      <path id="Path_12557-2" data-name="Path 12557" d="M801.814,639.108a.476.476,0,1,0,.464.476.476.476,0,0,0-.464-.476Z" transform="translate(-683.832 -426.796)" fill="#ff6584"/>
      <path id="Path_12558-2" data-name="Path 12558" d="M289.956,212.583a.476.476,0,0,0,.475-.443,16.84,16.84,0,0,1,16.749-15.6c.508,0,1.042.026,1.586.077a.476.476,0,0,0,.458-.238,20.009,20.009,0,0,1,36.591,4.352.474.474,0,0,0,.469.344l.127,0c.066,0,.132,0,.2,0A14.112,14.112,0,0,1,360.359,212.2a.476.476,0,0,0,.466.378h31.921a.476.476,0,0,0,0-.953h-31.54a15.073,15.073,0,0,0-14.583-11.52,20.962,20.962,0,0,0-38.074-4.472c-.469-.037-.928-.055-1.371-.055a17.8,17.8,0,0,0-17.7,16.49.476.476,0,0,0,.442.509Z" transform="translate(-35.281 -185.339)" fill="#cbcbcb"/>
      <path id="Path_12559-2" data-name="Path 12559" d="M330.521,255.541h78.142a.476.476,0,0,0,0-.953H330.521a.476.476,0,1,0,0,.953Z" transform="translate(-70.177 -222.187)" fill="#cbcbcb"/>
      <path id="Path_12560-2" data-name="Path 12560" d="M315.245,270.307h26.206a.477.477,0,1,0,0-.953H315.245a.476.476,0,0,0,0,.953Z" transform="translate(4.182 -230.044)" fill="#cbcbcb"/>
      <path id="Path_12561-2" data-name="Path 12561" d="M824.956,288.583a.476.476,0,0,0,.475-.443,16.84,16.84,0,0,1,16.748-15.6c.508,0,1.042.026,1.586.077a.477.477,0,0,0,.458-.238,20.009,20.009,0,0,1,36.591,4.352.474.474,0,0,0,.469.344l.127,0c.066,0,.132,0,.2,0A14.112,14.112,0,0,1,895.359,288.2a.476.476,0,0,0,.466.378h31.922a.476.476,0,1,0,0-.953h-31.54a15.074,15.074,0,0,0-14.583-11.52,20.962,20.962,0,0,0-38.074-4.472c-.469-.036-.928-.055-1.371-.055a17.8,17.8,0,0,0-17.7,16.49.476.476,0,0,0,.442.509Z" transform="translate(-820.6 -225.779)" fill="#cbcbcb"/>
      <path id="Path_12562-2" data-name="Path 12562" d="M865.523,331.541h78.14a.476.476,0,0,0,0-.953H865.521a.476.476,0,0,0,0,.953Z" transform="translate(-855.496 -262.628)" fill="#cbcbcb"/>
      <path id="Path_12563-2" data-name="Path 12563" d="M850.245,346.307h26.206a.477.477,0,0,0,0-.953H850.245a.476.476,0,0,0,0,.953Z" transform="translate(-781.137 -270.485)" fill="#cbcbcb"/>
      <path id="Path_438-4" data-name="Path 438" d="M331.141,684.589c-6.039,1.734-6.11-6.8-7.071-10.641,3.413,2.324,9.168,5.638,7.049,10.537" transform="translate(10.182 -445.335)" fill="#cacaca"/>
      <path id="Path_439-4" data-name="Path 439" d="M328.671,696.226c.793-4.487.843-10.169-3.559-12.821-.21-.133-.4.2-.194.333,4.25,2.571,4.124,8.06,3.381,12.385a.193.193,0,0,0,.372.1Z" transform="translate(12.319 -450.351)" fill="#3f3d56"/>
      <path id="Path_442-4" data-name="Path 442" d="M338.774,700.4c-2.763,3.709-6.612-1.258-8.887-3.078,3.035-.161,7.884-.787,8.828,3.027" transform="translate(0.261 -457.699)" fill="#cacaca"/>
      <path id="Path_443-4" data-name="Path 443" d="M332.032,706.469c-1.562-2.99-4.057-6.372-7.86-5.945-.247.021-.185.4.061.381,3.612-.374,5.962,2.875,7.446,5.722C331.8,706.84,332.155,706.686,332.032,706.469Z" transform="translate(9.725 -459.457)" fill="#3f3d56"/>
      <path id="Path_438-5" data-name="Path 438" d="M966.086,684.589c6.039,1.734,6.11-6.8,7.071-10.641-3.413,2.324-9.168,5.638-7.049,10.537" transform="translate(-931.587 -445.335)" fill="#cacaca"/>
      <path id="Path_439-5" data-name="Path 439" d="M972.251,696.226c-.793-4.487-.843-10.169,3.559-12.821.21-.133.4.2.194.333-4.25,2.571-4.124,8.06-3.381,12.385a.193.193,0,0,1-.372.1Z" transform="translate(-937.419 -450.351)" fill="#3f3d56"/>
      <path id="Path_442-5" data-name="Path 442" d="M956.881,700.4c2.763,3.709,6.612-1.258,8.887-3.078-3.035-.161-7.884-.787-8.828,3.027" transform="translate(-920.094 -457.699)" fill="#cacaca"/>
      <path id="Path_443-5" data-name="Path 443" d="M964.585,706.469c1.562-2.99,4.057-6.372,7.859-5.945.247.021.185.4-.061.381-3.612-.374-5.963,2.875-7.446,5.722C964.817,706.84,964.463,706.686,964.585,706.469Z" transform="translate(-930.52 -459.457)" fill="#3f3d56"/>
      <path id="Path_438-6" data-name="Path 438" d="M1009.452,662.859c10.527,3.022,10.652-11.855,12.327-18.549-5.95,4.052-15.982,9.828-12.288,18.368" transform="translate(-1000.347 -429.564)" fill="#cacaca"/>
      <path id="Path_439-6" data-name="Path 439" d="M1020.19,683.145c-1.383-7.821-1.47-17.727,6.2-22.349.367-.232.7.35.339.58-7.409,4.481-7.189,14.051-5.894,21.59a.337.337,0,0,1-.649.178Z" transform="translate(-1010.5 -438.308)" fill="#3f3d56"/>
      <path id="Path_442-6" data-name="Path 442" d="M993.4,690.422c4.817,6.466,11.526-2.192,15.492-5.366-5.291-.281-13.743-1.372-15.388,5.277" transform="translate(-980.303 -451.117)" fill="#cacaca"/>
      <path id="Path_443-6" data-name="Path 443" d="M1006.827,701c2.723-5.213,7.071-11.108,13.7-10.364.431.037.323.7-.107.664-6.3-.652-10.394,5.011-12.979,9.974C1007.229,701.648,1006.612,701.378,1006.827,701Z" transform="translate(-998.475 -454.181)" fill="#3f3d56"/>
    </g>
    <g id="Group_11030" data-name="Group 11030" transform="translate(-901.608 88.438)" opacity="0.34">
      <path id="Path_12561-3" data-name="Path 12561" d="M1143.934,345.618a1.473,1.473,0,0,1-1.469-1.371,52.093,52.093,0,0,0-51.81-48.269c-1.571,0-3.222.08-4.906.238a1.474,1.474,0,0,1-1.416-.735A61.9,61.9,0,0,0,971.14,308.943a1.467,1.467,0,0,1-1.449,1.063l-.392-.012c-.2-.007-.407-.014-.613-.014a43.656,43.656,0,0,0-42.541,34.468,1.474,1.474,0,0,1-1.442,1.17H877.746c-.039,3.311,0-.66,0-1.474v-1.474H923.52a46.63,46.63,0,0,1,45.112-35.638A64.845,64.845,0,0,1,1086.414,293.2c1.45-.113,2.872-.17,4.24-.17a55.05,55.05,0,0,1,54.752,51.011,1.474,1.474,0,0,1-1.367,1.574C1144.007,345.618,1143.964,345.618,1143.934,345.618Z" transform="translate(23.862 -151.338)"/>
      <path id="Path_12562-3" data-name="Path 12562" d="M1108.243,333.536H866.518a1.474,1.474,0,0,1,0-2.948h241.731a1.474,1.474,0,0,1,0,2.948Z" transform="translate(42.011 -120.356)"/>
      <path id="Path_12563-3" data-name="Path 12563" d="M915.94,348.3H849.77c-.033,1.071,0-.66,0-1.474s0-2.206,0-1.474h66.17a1.51,1.51,0,0,1,0,2.948Z" transform="translate(51.839 -113.75)"/>
    </g>
    <g id="Group_11031" data-name="Group 11031" transform="translate(1634.167 282.714)" opacity="0.34">
      <path id="Path_12561-4" data-name="Path 12561" d="M825.853,339.856a1.373,1.373,0,0,0,1.368-1.277,48.532,48.532,0,0,1,48.268-44.969c1.464,0,3,.074,4.571.221a1.373,1.373,0,0,0,1.319-.685,57.666,57.666,0,0,1,105.454,12.542,1.367,1.367,0,0,0,1.35.991l.365-.011c.19-.006.38-.013.571-.013a40.671,40.671,0,0,1,39.633,32.111,1.373,1.373,0,0,0,1.344,1.09h92a1.373,1.373,0,0,0,0-2.746h-90.9a43.442,43.442,0,0,0-42.028-33.2,60.412,60.412,0,0,0-109.729-12.887c-1.351-.105-2.676-.158-3.95-.158a51.286,51.286,0,0,0-51.009,47.524,1.373,1.373,0,0,0,1.273,1.466C825.785,339.856,825.826,339.856,825.853,339.856Z" transform="translate(-824.479 -158.857)"/>
      <path id="Path_12562-4" data-name="Path 12562" d="M866.423,333.335h225.2a1.373,1.373,0,0,0,0-2.746h-225.2a1.373,1.373,0,0,0,0,2.746Z" transform="translate(-848.705 -134.728)"/>
      <path id="Path_12563-4" data-name="Path 12563" d="M851.141,348.1h75.526a1.373,1.373,0,0,0,0-2.747H851.142a1.373,1.373,0,1,0,0,2.746Z" transform="translate(-663.153 -129.583)"/>
    </g>
  </g>
</svg>
