<svg xmlns="http://www.w3.org/2000/svg" width="32.013" height="40.074" viewBox="0 0 32.013 40.074">
  <path id="Path_11490" data-name="Path 11490" d="M30.838,7.569,23.843,1A4.138,4.138,0,0,0,21.017-.1H4A3.9,3.9,0,0,0,0,3.664V36.218a3.886,3.886,0,0,0,4,3.756h24.01a3.886,3.886,0,0,0,4-3.756V10.23a3.661,3.661,0,0,0-1.175-2.661ZM28.954,9.345a1.214,1.214,0,0,1,.35.579H21.342V2.451a1.335,1.335,0,0,1,.617.329ZM28.012,37.47H4a1.3,1.3,0,0,1-1.334-1.252V3.664A1.3,1.3,0,0,1,4,2.412H18.674V10.55a1.938,1.938,0,0,0,2,1.878h8.67V36.218A1.3,1.3,0,0,1,28.012,37.47Zm-1.834-13.4c-1.125-1.041-4.585-.72-6.144-.524a8.313,8.313,0,0,1-3.76-4.429c.358-1.409,1-3.694.534-5.079a1.983,1.983,0,0,0-3.718-.532c-.417,1.432-.025,3.474.7,6.088a73.384,73.384,0,0,1-3.51,6.933c-1.734.837-4.51,2.293-4.9,4.1-.292,1.315,1.909,3.083,4.427.5a20.967,20.967,0,0,0,2.609-3.561,50.9,50.9,0,0,1,6.836-1.878,13.333,13.333,0,0,0,5.386,1.557,1.887,1.887,0,0,0,1.542-3.177ZM7.07,31.037c.492-1.244,2.384-2.692,2.96-3.193C8.187,30.607,7.07,31.092,7.07,31.037Zm7.937-17.4c.725,0,.65,2.935.175,3.725C14.748,16.091,14.764,13.641,15.006,13.641ZM12.639,26.107a35.648,35.648,0,0,0,2.4-4.985,10.4,10.4,0,0,0,2.926,3.248A31.832,31.832,0,0,0,12.639,26.107Zm12.789-.462s-.484.548-3.626-.712C25.219,24.7,25.777,25.434,25.427,25.646Z" transform="translate(0 0.1)" fill="#ff6969"/>
</svg>
