<svg xmlns="http://www.w3.org/2000/svg" width="52" height="52" viewBox="0 0 52 52">
  <g id="Group_11013" data-name="Group 11013" transform="translate(-337 -364)">
    <g id="Group_11002" data-name="Group 11002" transform="translate(352.402 374.819)">
      <path id="Path_12399" data-name="Path 12399" d="M546.117,257.965h-1.542v-3a6.16,6.16,0,1,0-12.319-.083v3.079h-1.539a2.575,2.575,0,0,0-2.567,2.567V272.85a2.575,2.575,0,0,0,2.567,2.567h15.4a2.574,2.574,0,0,0,2.566-2.567V260.532A2.573,2.573,0,0,0,546.117,257.965Zm-6.8,8.007v4.412a.921.921,0,0,1-.854.924.9.9,0,0,1-.943-.9V265.97a2.049,2.049,0,1,1,1.8,0Zm3.465-8.007h-8.729v-3.079a4.363,4.363,0,0,1,8.726,0Z" transform="translate(-528.15 -248.499)" opacity="0.1"/>
      <path id="Path_12400" data-name="Path 12400" d="M546.117,255.965h-1.542v-3a6.16,6.16,0,1,0-12.319-.083v3.079h-1.539a2.575,2.575,0,0,0-2.567,2.567v12.318a2.575,2.575,0,0,0,2.567,2.567h15.4a2.574,2.574,0,0,0,2.566-2.567V258.532A2.573,2.573,0,0,0,546.117,255.965Zm-6.8,8.007v4.412a.921.921,0,0,1-.854.924.9.9,0,0,1-.943-.9V263.97a2.049,2.049,0,1,1,1.8,0Zm3.465-8.007h-8.729v-3.079a4.363,4.363,0,1,1,8.726,0Z" transform="translate(-528.15 -246.727)" fill="#6c63ff"/>
    </g>
    <g id="Group_11012" data-name="Group 11012" transform="translate(337 364)">
      <circle id="Ellipse_3663" data-name="Ellipse 3663" cx="26" cy="26" r="26" fill="#150578" opacity="0.05"/>
    </g>
  </g>
</svg>
