<svg xmlns="http://www.w3.org/2000/svg" width="129.009" height="159.967" viewBox="0 0 129.009 159.967">
  <path id="Path_12357" data-name="Path 12357" d="M124.272,30.513,96.085,4.3A16.762,16.762,0,0,0,84.7-.1H16.126C7.223-.069,0,6.647,0,14.925V144.873c0,8.278,7.223,14.994,16.126,14.994h96.757c8.9,0,16.126-6.716,16.126-14.994V41.133a14.551,14.551,0,0,0-4.737-10.621ZM116.679,37.6a4.839,4.839,0,0,1,1.411,2.312H86.006V10.083A5.4,5.4,0,0,1,88.492,11.4Zm-3.8,112.267H16.126a5.212,5.212,0,0,1-5.375-5V14.925a5.212,5.212,0,0,1,5.375-5H75.255V42.414a7.777,7.777,0,0,0,8.063,7.5h34.94v94.962A5.212,5.212,0,0,1,112.883,149.871Zm-7.391-53.479c-4.535-4.155-18.478-2.874-24.76-2.093-7.122-4-11.826-9.5-15.152-17.68C67.024,71,69.611,61.875,67.73,56.346c-1.478-8.778-13.338-7.716-14.984-2.124-1.68,5.716-.1,13.869,2.822,24.3A291.869,291.869,0,0,1,41.424,106.2c-6.988,3.342-18.175,9.153-19.754,16.368-1.176,5.248,7.693,12.308,17.84,2,3.057-3.093,6.484-7.747,10.516-14.213,8.97-2.749,18.847-6.185,27.549-7.5,7.358,3.748,15.992,6.216,21.7,6.216,9.306.031,9.709-9.434,6.215-12.682Zm-77,27.8c1.982-4.967,9.608-10.746,11.927-12.745C32.991,122.476,28.489,124.413,28.489,124.194ZM60.473,54.753c2.923,0,2.62,11.714.706,14.869C59.431,64.53,59.5,54.753,60.473,54.753Zm-9.541,49.761a141.719,141.719,0,0,0,9.676-19.9A41.646,41.646,0,0,0,72.4,97.58C64.236,99.048,57.147,102.3,50.932,104.514Zm51.536-1.843s-1.949,2.187-14.614-2.843C101.628,98.892,103.879,101.828,102.468,102.671Z" transform="translate(0 0.1)" fill="#bdbdbd"/>
</svg>
