<svg xmlns="http://www.w3.org/2000/svg" xmlns:xlink="http://www.w3.org/1999/xlink" width="229.817" height="225" viewBox="0 0 229.817 225">
  <defs>
    <filter id="Path_12359" x="90.08" y="52.632" width="139.737" height="139.737" filterUnits="userSpaceOnUse">
      <feOffset dy="10" input="SourceAlpha"/>
      <feGaussianBlur stdDeviation="6" result="blur"/>
      <feFlood flood-opacity="0.161"/>
      <feComposite operator="in" in2="blur"/>
      <feComposite in="SourceGraphic"/>
    </filter>
  </defs>
  <g id="Group_10976" data-name="Group 10976" transform="translate(-95 -93)">
    <circle id="Ellipse_3776" data-name="Ellipse 3776" cx="112.5" cy="112.5" r="112.5" transform="translate(95 93)" fill="#f3f0f0"/>
    <g id="Group_10974" data-name="Group 10974" transform="translate(203.08 153.632)">
      <g id="Group_286" data-name="Group 286" transform="translate(0 0)">
        <g id="Group_287" data-name="Group 287">
          <g transform="matrix(1, 0, 0, 1, -108.08, -60.63)" filter="url(#Path_12359)">
            <g id="Path_12359-2" data-name="Path 12359" transform="translate(108.08 60.63)" fill="#2b44ff" opacity="0.75">
              <path d="M 51.86853408813477 103.2370452880859 C 44.93360137939453 103.2370452880859 38.20638656616211 101.8789367675781 31.87373352050781 99.20045471191406 C 25.75686836242676 96.61324310302734 20.26325416564941 92.90930938720703 15.54549407958984 88.19155120849609 C 10.82773399353027 83.47380065917969 7.123800754547119 77.98018646240234 4.536587238311768 71.86331939697266 C 1.858107447624207 65.53067016601563 0.5000007748603821 58.8034553527832 0.5000007748603821 51.86852264404297 C 0.5000007748603821 44.93360137939453 1.858107447624207 38.20637512207031 4.536587238311768 31.87373542785645 C 7.123800754547119 25.75686836242676 10.82773399353027 20.26325607299805 15.54549407958984 15.54549598693848 C 20.26325416564941 10.82773590087891 25.75686836242676 7.123802661895752 31.87373352050781 4.5365891456604 C 38.20638656616211 1.858109354972839 44.93360137939453 0.5000026226043701 51.86853408813477 0.5000026226043701 C 58.803466796875 0.5000026226043701 65.53067779541016 1.858109354972839 71.86333465576172 4.5365891456604 C 77.98020172119141 7.123802661895752 83.47381591796875 10.82773590087891 88.19157409667969 15.54549598693848 C 92.90933227539063 20.26325607299805 96.61326599121094 25.75686836242676 99.20047760009766 31.87373542785645 C 101.8789596557617 38.20637512207031 103.2370681762695 44.93360137939453 103.2370681762695 51.86852264404297 C 103.2370681762695 58.8034553527832 101.8789596557617 65.53067016601563 99.20047760009766 71.86331939697266 C 96.61326599121094 77.98018646240234 92.90933227539063 83.47380065917969 88.19157409667969 88.19155120849609 C 83.47381591796875 92.90930938720703 77.98020172119141 96.61324310302734 71.86333465576172 99.20045471191406 C 65.53067779541016 101.8789367675781 58.803466796875 103.2370452880859 51.86853408813477 103.2370452880859 Z" stroke="none"/>
              <path d="M 51.86853408813477 0.9999923706054688 C 45.00089263916016 0.9999923706054688 38.33918762207031 2.344810485839844 32.06850433349609 4.997077941894531 C 26.01123046875 7.559097290039063 20.571044921875 11.22705078125 15.8990478515625 15.8990478515625 C 11.22705078125 20.57105255126953 7.559089660644531 26.01123809814453 4.997077941894531 32.06851196289063 C 2.344802856445313 38.33919525146484 0.9999923706054688 45.00088119506836 0.9999923706054688 51.86852264404297 C 0.9999923706054688 58.73616409301758 2.344802856445313 65.39786529541016 4.997077941894531 71.66853332519531 C 7.559089660644531 77.72580718994141 11.22705078125 83.16599273681641 15.8990478515625 87.83799743652344 C 20.571044921875 92.50999450683594 26.01123046875 96.17794036865234 32.06850433349609 98.73995208740234 C 38.33918762207031 101.392219543457 45.00089263916016 102.7370376586914 51.86853408813477 102.7370376586914 C 58.73617553710938 102.7370376586914 65.39787292480469 101.392219543457 71.66854858398438 98.73995208740234 C 77.72582244873047 96.17794036865234 83.166015625 92.50999450683594 87.83802032470703 87.83799743652344 C 92.51001739501953 83.16599273681641 96.17796325683594 77.72580718994141 98.73997497558594 71.66853332519531 C 101.3922500610352 65.39786529541016 102.737060546875 58.73616409301758 102.737060546875 51.86852264404297 C 102.737060546875 45.00088119506836 101.3922500610352 38.33919525146484 98.73997497558594 32.06851196289063 C 96.17796325683594 26.01123809814453 92.51001739501953 20.57105255126953 87.83802032470703 15.8990478515625 C 83.166015625 11.22705078125 77.72582244873047 7.559097290039063 71.66854858398438 4.997077941894531 C 65.39787292480469 2.344810485839844 58.73617553710938 0.9999923706054688 51.86853408813477 0.9999923706054688 M 51.86853408813477 -7.62939453125e-06 C 80.51473236083984 -7.62939453125e-06 103.737060546875 23.22233581542969 103.737060546875 51.86852264404297 C 103.737060546875 80.51472473144531 80.51473236083984 103.7370376586914 51.86853408813477 103.7370376586914 C 23.22233581542969 103.7370376586914 -7.62939453125e-06 80.51472473144531 -7.62939453125e-06 51.86852264404297 C -7.62939453125e-06 23.22233581542969 23.22233581542969 -7.62939453125e-06 51.86853408813477 -7.62939453125e-06 Z" stroke="none" fill="#707070"/>
            </g>
          </g>
          <path id="person" d="M24.712,2.5a13.273,13.273,0,0,0-7.47,24.242A21.728,21.728,0,0,0,3,46.483a1.81,1.81,0,1,0,3.618.108,18.1,18.1,0,0,1,36.179,0,1.81,1.81,0,1,0,3.618-.108A21.728,21.728,0,0,0,32.182,26.742,13.272,13.272,0,0,0,24.712,2.5ZM15.06,15.771a9.652,9.652,0,1,1,9.652,9.652A9.652,9.652,0,0,1,15.06,15.771Z" transform="translate(27.306 26.615)" fill="#fff" fill-rule="evenodd"/>
        </g>
      </g>
    </g>
  </g>
</svg>
