<svg xmlns="http://www.w3.org/2000/svg" width="429.044" height="330.603" viewBox="0 0 429.044 330.603">
  <g id="Group_10976" data-name="Group 10976" transform="translate(9 7.574)">
    <path id="ic_location_on_24px" d="M12,2A7,7,0,0,0,5,9c0,5.25,7,13,7,13s7-7.75,7-13A7,7,0,0,0,12,2Zm0,9.5A2.5,2.5,0,1,1,14.5,9,2.5,2.5,0,0,1,12,11.5Z" transform="translate(322 296)" opacity="0.25"/>
    <path id="calendar" d="M3.46,0a.494.494,0,0,1,.494.494V1.977H9.885V.494a.494.494,0,1,1,.989,0V1.977h1.812A1.153,1.153,0,0,1,13.839,3.13V13.674a1.153,1.153,0,0,1-1.153,1.153H1.153A1.153,1.153,0,0,1,0,13.674V3.13A1.153,1.153,0,0,1,1.153,1.977H2.966V.494A.494.494,0,0,1,3.46,0ZM1.153,2.966a.165.165,0,0,0-.165.165V5.272H12.851V3.13a.165.165,0,0,0-.165-.165Zm11.7,3.3H.989v7.414a.165.165,0,0,0,.165.165H12.686a.165.165,0,0,0,.165-.165Z" transform="matrix(0.966, -0.259, 0.259, 0.966, 87.182, 160.491)" stroke="#000" stroke-width="0.5" fill-rule="evenodd" opacity="0.25"/>
    <g id="graph" transform="matrix(0.966, -0.259, 0.259, 0.966, 132.944, 61.975)" opacity="0.25">
      <path id="Path_11505" data-name="Path 11505" d="M1.143.571A.571.571,0,1,0,0,.571v14.1a.571.571,0,0,0,.571.571H14.477a.571.571,0,0,0,0-1.143H1.143Z" transform="translate(0 0)" stroke="#000" stroke-width="0.5"/>
      <path id="Path_11506" data-name="Path 11506" d="M13.548.976A.571.571,0,1,0,12.74.167L8.382,4.526,5.547,1.691a.571.571,0,0,0-.808,0L.167,6.263a.571.571,0,0,0,.808.808L5.143,2.9,7.977,5.738a.571.571,0,0,0,.808,0Z" transform="translate(2.667 3.429)" stroke="#000" stroke-width="0.5"/>
    </g>
    <path id="lock" d="M2.29,6.108V4.772a4.585,4.585,0,1,1,9.162,0V6.108h.382a1.909,1.909,0,0,1,1.909,1.909v6.108a1.909,1.909,0,0,1-1.909,1.909H1.909A1.909,1.909,0,0,1,0,14.125V8.017A1.909,1.909,0,0,1,1.909,6.108ZM3.436,4.772a3.441,3.441,0,1,1,6.871,0V6.108H3.436ZM1.145,8.017a.763.763,0,0,1,.763-.763h9.925a.763.763,0,0,1,.763.763v6.108a.763.763,0,0,1-.763.764H1.909a.763.763,0,0,1-.763-.764Z" transform="translate(364.44 36.595) rotate(9)" stroke="#000" stroke-width="0.5" fill-rule="evenodd" opacity="0.25"/>
    <g id="issue-opened" transform="matrix(0.966, 0.259, -0.259, 0.966, 355.115, 153.153)" opacity="0.25">
      <path id="Path_11502" data-name="Path 11502" d="M.657,0a.657.657,0,0,1,.657.657V4.6A.657.657,0,1,1,0,4.6V.657A.657.657,0,0,1,.657,0Z" transform="translate(8.984 5.259)" stroke="#000" stroke-width="0.5"/>
      <path id="Path_11503" data-name="Path 11503" d="M1.753.876A.876.876,0,1,1,.876,0,.876.876,0,0,1,1.753.876Z" transform="translate(8.765 12.271)" stroke="#000" stroke-width="0.5"/>
      <path id="Path_11504" data-name="Path 11504" d="M9.641,0a9.641,9.641,0,1,0,9.641,9.641A9.641,9.641,0,0,0,9.641,0ZM1.315,9.641a8.327,8.327,0,1,1,8.327,8.327A8.327,8.327,0,0,1,1.315,9.641Z" transform="translate(0 0)" stroke="#000" stroke-width="0.5" fill-rule="evenodd"/>
    </g>
    <path id="Path_467" data-name="Path 467" d="M25.413,5.22c-2.112.143-5.126,2.231-6.651,2.916a8.44,8.44,0,0,1-3.1,1c-.922,0-1.06-.661-.869-2.116.045-.326.477-3.23-1.741-3.1-1.024.061-2.622,1.011-6.912,5.138L7.829,4.821A3.523,3.523,0,0,0,2.539.629L.3,2.133a.656.656,0,0,0-.2.9l.7,1.1a.649.649,0,0,0,.9.2L4.069,2.749A.91.91,0,0,1,5.4,3.854L1.4,13.87a1.3,1.3,0,0,0,1.211,1.79,1.29,1.29,0,0,0,.922-.383c1.721-1.721,6.309-6.146,8.613-7.985a4.233,4.233,0,0,0,.84,3.417,3.441,3.441,0,0,0,2.671,1.032,10.313,10.313,0,0,0,4.172-1.223c1.346-.6,4.037-2.553,5.644-2.683a.655.655,0,0,0,.62-.644V5.881A.647.647,0,0,0,25.413,5.22Z" transform="matrix(0.966, -0.259, 0.259, 0.966, 276.089, 83.447)" opacity="0.25"/>
    <path id="search" d="M9.088,9.8A5.541,5.541,0,1,1,9.8,9.088l3.822,3.822a.5.5,0,0,1-.712.712ZM1.008,5.542A4.534,4.534,0,1,1,8.893,8.6a.506.506,0,0,0-.3.3A4.534,4.534,0,0,1,1.008,5.542Z" transform="matrix(0.966, -0.259, 0.259, 0.966, 98.387, -0.868)" stroke="#000" stroke-width="0.5" fill-rule="evenodd" opacity="0.25"/>
    <path id="mail" d="M1.334,0A1.334,1.334,0,0,0,0,1.334V12.009a1.334,1.334,0,0,0,1.334,1.334H16.965A1.334,1.334,0,0,0,18.3,12.009V1.334A1.334,1.334,0,0,0,16.965,0ZM1.144,1.334a.191.191,0,0,1,.191-.191H16.965a.191.191,0,0,1,.191.191v.649l-7.9,5.337a.191.191,0,0,1-.213,0l-7.9-5.337Zm0,2.03v8.645a.191.191,0,0,0,.191.191H16.965a.191.191,0,0,0,.191-.191V3.364L9.9,8.269a1.334,1.334,0,0,1-1.494,0Z" transform="translate(402.144 230.271) rotate(16)" stroke="#000" stroke-width="0.5" fill-rule="evenodd" opacity="0.25"/>
    <path id="paper-airplane" d="M.372.248A1.187,1.187,0,0,1,1.57.1L17.018,6.771a.8.8,0,0,1,0,1.5L1.57,14.943a1.187,1.187,0,0,1-1.2-.152.944.944,0,0,1-.358-.906L1.153,7.52.014,1.154A.944.944,0,0,1,.372.248Zm1.9,7.815L1.228,13.887,15.967,7.52,1.228,1.152,2.27,6.977H8.152a.546.546,0,1,1,0,1.086Z" transform="translate(206.116 -7.205) rotate(45)" stroke="#000" stroke-width="0.5" fill-rule="evenodd" opacity="0.25"/>
    <path id="file" d="M4.486,2.114a.371.371,0,0,0-.371.371v13.37a.371.371,0,0,0,.371.371h10.4a.371.371,0,0,0,.371-.371V6.571H12.285A1.486,1.486,0,0,1,10.8,5.085V2.114Zm7.428,0V5.085a.371.371,0,0,0,.371.371h2.971a.372.372,0,0,0-.109-.249L12.163,2.223A.371.371,0,0,0,11.913,2.114ZM3,2.486A1.486,1.486,0,0,1,4.486,1H11.9a1.485,1.485,0,0,1,1.05.435l2.984,2.984a1.485,1.485,0,0,1,.435,1.05V15.855a1.486,1.486,0,0,1-1.486,1.486H4.486A1.486,1.486,0,0,1,3,15.855Z" transform="translate(294.13 -7.719) rotate(21)" stroke="#000" stroke-width="0.5" fill-rule="evenodd" opacity="0.25"/>
    <path id="home" d="M11.009,2.589a1.5,1.5,0,0,1,1.936,0l7.481,6.347a1.5,1.5,0,0,1,.528,1.141v9.379a1.5,1.5,0,0,1-1.5,1.5H13.723a.748.748,0,0,1-.748-.748V13.97H10.98V20.2a.748.748,0,0,1-.748.748H4.5a1.5,1.5,0,0,1-1.5-1.5V10.077a1.5,1.5,0,0,1,.528-1.141Zm.968,1.141L4.5,10.077v9.379H9.483V13.222a.748.748,0,0,1,.748-.748h3.491a.748.748,0,0,1,.748.748v6.234h4.987V10.077Z" transform="matrix(0.899, 0.438, -0.438, 0.899, 127.262, 294.678)" stroke="#000" stroke-width="0.5" fill-rule="evenodd" opacity="0.25"/>
    <path id="ic_query_builder_24px" d="M9.9,2a7.907,7.907,0,1,0,7.915,7.907A7.9,7.9,0,0,0,9.9,2Zm.008,14.232a6.325,6.325,0,1,1,6.325-6.325A6.324,6.324,0,0,1,9.907,16.232Zm.4-10.279H9.116V10.7l4.151,2.491.593-.973L10.3,10.1Z" transform="translate(-11 186)" opacity="0.25"/>
    <path id="ic_cloud_queue_24px" d="M19.35,10.04a7.492,7.492,0,0,0-14-2A6,6,0,0,0,6,20H19a4.986,4.986,0,0,0,.35-9.96ZM19,18H6a4,4,0,0,1,0-8h.71A5.5,5.5,0,0,1,17.5,11.5V12H19a3,3,0,0,1,0,6Z" transform="translate(0 102)" opacity="0.25"/>
    <path id="ic_create_24px" d="M3,14.592v3.051H6.051l9-9L12,5.595ZM17.407,6.286a.81.81,0,0,0,0-1.147l-1.9-1.9a.81.81,0,0,0-1.147,0L12.868,4.724l3.051,3.051,1.489-1.489Z" transform="translate(17 280.357)" opacity="0.25"/>
  </g>
</svg>
