<svg xmlns="http://www.w3.org/2000/svg" width="52" height="52" viewBox="0 0 52 52">
  <g id="Group_11015" data-name="Group 11015" transform="translate(-343 -369)">
    <g id="Group_11011" data-name="Group 11011" transform="translate(357.899 376)">
      <g id="Group_11002" data-name="Group 11002">
        <path id="Path_12399" data-name="Path 12399" d="M547.3,258.574h-1.644v-3.193a6.566,6.566,0,1,0-13.131-.089v3.282h-1.64a2.744,2.744,0,0,0-2.736,2.736v13.13a2.744,2.744,0,0,0,2.736,2.736H547.3a2.743,2.743,0,0,0,2.735-2.736V261.31A2.743,2.743,0,0,0,547.3,258.574Zm-7.249,8.535v4.7a.982.982,0,0,1-.91.985.96.96,0,0,1-1-.958v-4.732a2.184,2.184,0,1,1,1.915,0Zm3.693-8.535h-9.3v-3.282a4.65,4.65,0,0,1,9.3,0Z" transform="translate(-528.15 -244.773)" opacity="0.1"/>
        <path id="Path_12400" data-name="Path 12400" d="M547.3,256.574h-1.644v-3.193a6.566,6.566,0,1,0-13.131-.089v3.282h-1.64a2.744,2.744,0,0,0-2.736,2.736v13.13a2.744,2.744,0,0,0,2.736,2.736H547.3a2.743,2.743,0,0,0,2.735-2.736V259.31A2.743,2.743,0,0,0,547.3,256.574Zm-7.249,8.535v4.7a.982.982,0,0,1-.91.985.96.96,0,0,1-1-.958v-4.732a2.184,2.184,0,1,1,1.915,0Zm3.693-8.535h-9.3v-3.282a4.65,4.65,0,0,1,9.3,0Z" transform="translate(-528.15 -243.016)" fill="#6c63ff"/>
        <rect id="Rectangle_1245" data-name="Rectangle 1245" width="22" height="14" transform="translate(0.582)" fill="#fff"/>
      </g>
    </g>
    <g id="Group_10996" data-name="Group 10996" transform="translate(360.98 375.693)">
      <path id="Path_12395" data-name="Path 12395" d="M10.1,10.1H0V5.611C0,2.36,2.124,0,5.05,0S10.1,2.36,10.1,5.611ZM1.122,8.978H8.978V5.611c0-2.643-1.615-4.489-3.928-4.489S1.122,2.968,1.122,5.611Z" transform="matrix(0.875, -0.485, 0.485, 0.875, 0, 4.897)" fill="#6c63ff"/>
      <path id="Path_12396" data-name="Path 12396" d="M19.553,0c-7.175,3.857-7.182,8.3-7.182,8.3l.425.709s1.39-.05,3.148,0,3.885.2,3.885.2l3.184-5.523Z" transform="translate(-6.974 3.929)" fill="#fff"/>
    </g>
    <g id="Group_11014" data-name="Group 11014" transform="translate(343 369)">
      <circle id="Ellipse_3663" data-name="Ellipse 3663" cx="26" cy="26" r="26" fill="#150578" opacity="0.05"/>
    </g>
  </g>
</svg>
