<svg id="file-diff" xmlns="http://www.w3.org/2000/svg" width="24.276" height="31.34" viewBox="0 0 24.276 31.34">
  <path id="Path_501" data-name="Path 501" d="M5.7,1A2.776,2.776,0,0,0,3,3.849V29.491A2.776,2.776,0,0,0,5.7,32.34H24.579a2.776,2.776,0,0,0,2.7-2.849V9.573a2.932,2.932,0,0,0-.79-2.015L21.067,1.834A2.626,2.626,0,0,0,19.16,1ZM5.023,3.849A.694.694,0,0,1,5.7,3.137H19.16a.657.657,0,0,1,.477.209l5.419,5.723a.733.733,0,0,1,.2.5V29.491a.694.694,0,0,1-.674.712H5.7a.694.694,0,0,1-.674-.712Z" transform="translate(-3 -1)" fill-rule="evenodd"/>
  <path id="home" d="M8.844,2.507a1.048,1.048,0,0,1,1.413,0L15.716,7.4a1.181,1.181,0,0,1,.385.879v7.229a1.124,1.124,0,0,1-1.092,1.153H10.824a.562.562,0,0,1-.546-.577V11.28H8.823v4.805a.562.562,0,0,1-.546.577H4.092A1.124,1.124,0,0,1,3,15.508V8.279A1.181,1.181,0,0,1,3.385,7.4Zm.706.879L4.092,8.279v7.229H7.731V10.7a.562.562,0,0,1,.546-.577h2.548a.562.562,0,0,1,.546.577v4.805H15.01V8.279Z" transform="translate(2.451 8.726)" stroke="#000" stroke-width="1" fill-rule="evenodd"/>
</svg>
