<svg xmlns="http://www.w3.org/2000/svg" xmlns:xlink="http://www.w3.org/1999/xlink" width="146.252" height="262.038" viewBox="0 0 146.252 262.038">
  <defs>
    <linearGradient id="linear-gradient" x1="0.499" y1="0.984" x2="0.499" y2="0.01" gradientUnits="objectBoundingBox">
      <stop offset="0.01" stop-color="gray" stop-opacity="0.251"/>
      <stop offset="0.54" stop-color="gray" stop-opacity="0.122"/>
      <stop offset="1" stop-color="gray" stop-opacity="0.102"/>
    </linearGradient>
    <filter id="Path_516" x="53.444" y="106.59" width="46.192" height="56.931" filterUnits="userSpaceOnUse">
      <feOffset dy="3" input="SourceAlpha"/>
      <feGaussianBlur stdDeviation="3" result="blur"/>
      <feFlood flood-opacity="0.161"/>
      <feComposite operator="in" in2="blur"/>
      <feComposite in="SourceGraphic"/>
    </filter>
    <filter id="Path_513" x="61.366" y="106.46" width="56.426" height="26.43" filterUnits="userSpaceOnUse">
      <feOffset dy="3" input="SourceAlpha"/>
      <feGaussianBlur stdDeviation="3" result="blur-2"/>
      <feFlood flood-opacity="0.161"/>
      <feComposite operator="in" in2="blur-2"/>
      <feComposite in="SourceGraphic"/>
    </filter>
    <filter id="Rectangle_658" x="52.674" y="106.46" width="27.012" height="57.125" filterUnits="userSpaceOnUse">
      <feOffset dy="3" input="SourceAlpha"/>
      <feGaussianBlur stdDeviation="3" result="blur-3"/>
      <feFlood flood-opacity="0.161"/>
      <feComposite operator="in" in2="blur-3"/>
      <feComposite in="SourceGraphic"/>
    </filter>
    <filter id="Path_512" x="65.783" y="131.198" width="34.087" height="32.315" filterUnits="userSpaceOnUse">
      <feOffset dy="3" input="SourceAlpha"/>
      <feGaussianBlur stdDeviation="3" result="blur-4"/>
      <feFlood flood-opacity="0.161"/>
      <feComposite operator="in" in2="blur-4"/>
      <feComposite in="SourceGraphic"/>
    </filter>
    <filter id="Path_514" x="55.408" y="85.999" width="62.362" height="46.474" filterUnits="userSpaceOnUse">
      <feOffset dy="3" input="SourceAlpha"/>
      <feGaussianBlur stdDeviation="3" result="blur-5"/>
      <feFlood flood-opacity="0.161"/>
      <feComposite operator="in" in2="blur-5"/>
      <feComposite in="SourceGraphic"/>
    </filter>
    <filter id="Path_515" x="28.437" y="86.002" width="62.819" height="48.2" filterUnits="userSpaceOnUse">
      <feOffset dy="3" input="SourceAlpha"/>
      <feGaussianBlur stdDeviation="3" result="blur-6"/>
      <feFlood flood-opacity="0.161"/>
      <feComposite operator="in" in2="blur-6"/>
      <feComposite in="SourceGraphic"/>
    </filter>
  </defs>
  <g id="Group_11021" data-name="Group 11021" transform="translate(-1279.601 362.618)">
    <rect id="Rectangle_1270" data-name="Rectangle 1270" width="145.886" height="261.834" rx="10" transform="translate(1279.601 -362.414) rotate(-0.08)" fill="url(#linear-gradient)"/>
    <rect id="Rectangle_1271" data-name="Rectangle 1271" width="139.167" height="249.131" rx="10" transform="translate(1282.964 -359.712) rotate(-0.08)" fill="#fff"/>
    <rect id="Rectangle_1272" data-name="Rectangle 1272" width="107.742" height="202.74" transform="translate(1298.701 -342.121) rotate(-0.08)" fill="#6d71e8"/>
    <circle id="Ellipse_3800" data-name="Ellipse 3800" cx="8.591" cy="8.591" r="8.591" transform="translate(1344.276 -133.431) rotate(-0.08)" fill="#dbdbdb"/>
    <circle id="Ellipse_3801" data-name="Ellipse 3801" cx="1.721" cy="1.721" r="1.721" transform="translate(1334.202 -352.582)" fill="#dbdbdb"/>
    <rect id="Rectangle_1273" data-name="Rectangle 1273" width="26.631" height="2.578" rx="1.289" transform="translate(1343.969 -352.927) rotate(-0.08)" fill="#dbdbdb"/>
    <g id="Group_307" data-name="Group 307" transform="translate(1317.037 -270.619)">
      <g transform="matrix(1, 0, 0, 1, -37.44, -92)" filter="url(#Path_516)">
        <path id="Path_516-2" data-name="Path 516" d="M-.848-21.8l8.462.189L.168-35.562a12.86,12.86,0,0,0,6.992-11.29A13.149,13.149,0,0,0-5.848-60.2l-14.721.584-.009,37.786,8.226.561V-34.061h4.119Zm-11.5-30.055h6.5c2.385,0,4.336,2.169,4.336,5.005s-1.951,5.005-4.336,5.005h-6.5Z" transform="translate(83.02 172.79)" fill="#fff"/>
      </g>
      <g transform="matrix(1, 0, 0, 1, -37.44, -92)" filter="url(#Path_513)">
        <path id="Path_513-2" data-name="Path 513" d="M0,18.008,8.02,0l.409,38.412L0,38.426Z" transform="translate(108.79 112.46) rotate(90)" fill="#fff"/>
      </g>
      <g transform="matrix(1, 0, 0, 1, -37.44, -92)" filter="url(#Rectangle_658)">
        <path id="Rectangle_658-2" data-name="Rectangle 658" d="M3,0H9.012a0,0,0,0,1,0,0V39.125a0,0,0,0,1,0,0H3a3,3,0,0,1-3-3V3A3,3,0,0,1,3,0Z" transform="translate(61.67 112.46)" fill="#fff"/>
      </g>
      <g transform="matrix(1, 0, 0, 1, -37.44, -92)" filter="url(#Path_512)">
        <path id="Path_512-2" data-name="Path 512" d="M-13.991,49.4-5.58,47.87,1.6,60.624s.934,1.561.237,1.561H-5.22a3.5,3.5,0,0,1-1.362-.294,2.31,2.31,0,0,1-.859-.87Z" transform="translate(88.77 89.33)" fill="#fff"/>
      </g>
      <g transform="matrix(1, 0, 0, 1, -37.44, -92)" filter="url(#Path_514)">
        <path id="Path_514-2" data-name="Path 514" d="M-46.033,29.129l17.809-2.308L-1.671,55.294l-17.95-7.978Z" transform="translate(110.44 65.18)" fill="#fff"/>
      </g>
      <g transform="matrix(1, 0, 0, 1, -37.44, -92)" filter="url(#Path_515)">
        <path id="Path_515-2" data-name="Path 515" d="M-3.466,26.829H-16.347a6.792,6.792,0,0,0-2.617.412,7.708,7.708,0,0,0-2.257,1.58l-27.064,28.2h8.643Z" transform="translate(85.72 65.18)" fill="#fff"/>
      </g>
    </g>
  </g>
</svg>
