<svg xmlns="http://www.w3.org/2000/svg" xmlns:xlink="http://www.w3.org/1999/xlink" width="414" height="896" viewBox="0 0 414 896">
  <defs>
    <clipPath id="clip-Portal_not_supported_Final_1">
      <rect width="414" height="896"/>
    </clipPath>
  </defs>
  <g id="Portal_not_supported_Final_1" data-name="Portal not supported Final – 1" clip-path="url(#clip-Portal_not_supported_Final_1)">
    <rect width="414" height="896" fill="rgba(255,255,255,0)"/>
    <g id="Group_11033" data-name="Group 11033" transform="translate(230.79 837.934)" opacity="0.35">
      <rect id="Rectangle_1250" data-name="Rectangle 1250" width="62.196" height="29.28" transform="translate(11.427 25.366)" fill="#f0f0f0" opacity="0.55"/>
      <rect id="Rectangle_1251" data-name="Rectangle 1251" width="8.281" height="16.702" transform="translate(39.624 37.764)" fill="#cacaca" opacity="0.55"/>
      <path id="Path_12534" data-name="Path 12534" d="M646.38,420.694h0a4,4,0,0,0-4,4v5.4h8v-5.4A4,4,0,0,0,646.38,420.694Z" transform="translate(-623.318 -383.141)" fill="#fff" opacity="0.55"/>
      <path id="Path_12535" data-name="Path 12535" d="M416.254,420.694h0a4,4,0,0,0-4,4v5.4h8v-5.4A4,4,0,0,0,416.254,420.694Z" transform="translate(-353.613 -383.141)" fill="#fff" opacity="0.55"/>
      <path id="Path_12536" data-name="Path 12536" d="M422.348,537.187l12.321-8.114a.38.38,0,0,1,.21-.066l30.994-17.213L493.6,529.007a.375.375,0,0,1,.2.057l13.411,8.114a.892.892,0,0,1,.314.864c-.048.363-.261.624-.51.624h-3.479v26.659h.389v2.7H425.648v-2.7h.649V538.666h-3.739c-.245,0-.457-.256-.508-.613A.908.908,0,0,1,422.348,537.187Zm4.988,28.139h75.154V538.666H427.336Z" transform="translate(-422.039 -511.794)" fill="#cacaca" opacity="0.55"/>
      <rect id="Rectangle_1256" data-name="Rectangle 1256" width="10.246" height="1.684" transform="translate(17.94 46.395)" fill="#cacaca" opacity="0.55"/>
      <rect id="Rectangle_1257" data-name="Rectangle 1257" width="10.246" height="1.684" transform="translate(57.659 46.395)" fill="#cacaca" opacity="0.55"/>
      <path id="Path_12538" data-name="Path 12538" d="M797.361,626.672l.049-.6c.063-.237.655.507.726.523a1.757,1.757,0,0,1,.569-.026c-.025-1.085.141-.593.626-.1a1.757,1.757,0,1,1-1.97.21Z" transform="translate(-774.703 -584.942)" fill="#3f3d56" opacity="0.55"/>
      <path id="Path_12539" data-name="Path 12539" d="M798.137,643.5c-.646-.01-1.46,2.259.072,2.27.793.006,2.2.161,2.2.161s1.091-1.637.6-2.656Z" transform="translate(-775.699 -599.314)" fill="#3f3d56" opacity="0.55"/>
      <path id="Path_12540" data-name="Path 12540" d="M661.982,466.109v1.175h-.549l-.436-1.2" transform="translate(-638.121 -420.727)" fill="#3f3d56" opacity="0.55"/>
      <path id="Path_12541" data-name="Path 12541" d="M806.824,652.546c.011-.012.594.027.571-.021v-1.175c-.1-.157-.019,1.169-.043,1.154h-.513c-.025-.015-.4-1.219-.458-1.2a.021.021,0,0,0-.012.011.022.022,0,0,0,0,.016C806.389,651.35,806.783,652.554,806.824,652.546Z" transform="translate(-783.513 -605.968)" fill="#fff" opacity="0.55"/>
      <path id="Path_12542" data-name="Path 12542" d="M812.163,657.27c-.015.193.915.193.9,0C813.078,657.076,812.147,657.076,812.163,657.27Z" transform="translate(-790.177 -610.784)" fill="#3f3d56" opacity="0.55"/>
      <path id="Path_12543" data-name="Path 12543" d="M813.371,652.383c.054.013.235-.879-.317-1C813.592,651.664,813.315,652.326,813.371,652.383Z" transform="translate(-790.71 -606.026)" fill="#fff" opacity="0.55"/>
      <path id="Path_12544" data-name="Path 12544" d="M817.456,656.017l.008-.013.07,0Z" transform="translate(-795.558 -609.856)" fill="#3f3d56" opacity="0.55"/>
      <path id="Path_12545" data-name="Path 12545" d="M816.872,650.85a.683.683,0,0,1,1.167.174c.284.52,1.5.133,1.345.831C818.627,651.7,816.387,652.242,816.872,650.85Z" transform="translate(-797.309 -605.368)" fill="#3f3d56" opacity="0.55"/>
      <path id="Path_12546" data-name="Path 12546" d="M799.45,643.883a1.819,1.819,0,0,0,1.4-.7.021.021,0,0,0-.036-.022,1.576,1.576,0,0,1-.673.543,2.516,2.516,0,0,1-2.2-.318A2.72,2.72,0,0,0,799.45,643.883Z" transform="translate(-775.518 -599.214)" fill="#fff" opacity="0.55"/>
      <path id="Path_12547" data-name="Path 12547" d="M805.9,640.262c.112.035.21-.236.107-.15a.107.107,0,0,1-.107.107c-.091.009-.087-.091-.128-.129C805.7,640.148,805.818,640.272,805.9,640.262Z" transform="translate(-782.056 -596.679)" fill="#fff" opacity="0.55"/>
      <path id="Path_12548" data-name="Path 12548" d="M803.34,652.61c.043.006.343-1.073.363-1.09a.022.022,0,0,0-.014-.027,10.8,10.8,0,0,0-.37,1.089.022.022,0,0,0,0,.019A.022.022,0,0,0,803.34,652.61Z" transform="translate(-779.298 -606.121)" fill="#fff" opacity="0.55"/>
      <path id="Path_12549" data-name="Path 12549" d="M805.436,658.142c-.015.193.915.193.9,0C806.351,657.948,805.42,657.948,805.436,658.142Z" transform="translate(-782.293 -611.506)" fill="#3f3d56" opacity="0.55"/>
      <path id="Path_12550" data-name="Path 12550" d="M801.2,658.016c-.015.193.915.193.9,0C802.116,657.823,801.185,657.823,801.2,658.016Z" transform="translate(-777.33 -611.403)" fill="#3f3d56" opacity="0.55"/>
      <path id="Path_12551" data-name="Path 12551" d="M805.686,638.351c-.006.085.348.085.343,0S805.68,638.265,805.686,638.351Z" transform="translate(-782.028 -595.186)" fill="#fff" opacity="0.55"/>
      <path id="Path_12552" data-name="Path 12552" d="M799.924,633.841a.524.524,0,0,0-.8,0,.581.581,0,1,1,.8,0Z" transform="translate(-774.943 -590.672)" fill="#fff" opacity="0.55"/>
      <path id="Path_12553" data-name="Path 12553" d="M809.042,633.841a.524.524,0,0,0-.8,0,.581.581,0,1,1,.8,0Z" transform="translate(-785.629 -590.672)" fill="#fff" opacity="0.55"/>
      <path id="Path_12554" data-name="Path 12554" d="M799.9,635.41a.2.2,0,1,0,.194.2A.2.2,0,0,0,799.9,635.41Z" transform="translate(-775.062 -592.804)" fill="#3f3d56" opacity="0.55"/>
      <path id="Path_12555" data-name="Path 12555" d="M809.014,635.41a.2.2,0,1,0,.195.2A.2.2,0,0,0,809.014,635.41Z" transform="translate(-785.748 -592.804)" fill="#3f3d56" opacity="0.55"/>
      <path id="Path_12556" data-name="Path 12556" d="M810.72,639.108a.175.175,0,1,0,.171.175.175.175,0,0,0-.171-.175Z" transform="translate(-787.728 -595.866)" fill="#ff6584" opacity="0.55"/>
      <path id="Path_12557" data-name="Path 12557" d="M801.521,639.108a.175.175,0,1,0,.17.175.175.175,0,0,0-.17-.175Z" transform="translate(-776.945 -595.866)" fill="#ff6584" opacity="0.55"/>
    </g>
    <g id="Group_11034" data-name="Group 11034" transform="translate(-5.344 814.198)" opacity="0.35">
      <rect id="Rectangle_1250-2" data-name="Rectangle 1250" width="88.448" height="41.639" transform="translate(16.251 36.072)" fill="#f0f0f0" opacity="0.55"/>
      <rect id="Rectangle_1251-2" data-name="Rectangle 1251" width="11.776" height="23.752" transform="translate(56.35 53.703)" fill="#cacaca" opacity="0.55"/>
      <path id="Path_12534-2" data-name="Path 12534" d="M648.069,420.694h0a5.689,5.689,0,0,0-5.688,5.688v7.684h11.377v-7.684A5.688,5.688,0,0,0,648.069,420.694Z" transform="translate(-615.27 -367.29)" fill="#fff" opacity="0.55"/>
      <path id="Path_12535-2" data-name="Path 12535" d="M417.942,420.694h0a5.688,5.688,0,0,0-5.688,5.688v7.684h11.377v-7.684A5.688,5.688,0,0,0,417.942,420.694Z" transform="translate(-328.859 -367.29)" fill="#fff" opacity="0.55"/>
      <path id="Path_12536-2" data-name="Path 12536" d="M422.478,547.9,440,536.366a.54.54,0,0,1,.3-.094l44.077-24.478L523.8,536.273a.532.532,0,0,1,.278.081l19.072,11.538a1.269,1.269,0,0,1,.447,1.229c-.068.516-.371.888-.725.888h-4.948v37.912h.554v3.846H427.172v-3.846h.923V550.009h-5.317c-.349,0-.65-.364-.722-.872A1.291,1.291,0,0,1,422.478,547.9Zm7.093,40.016H536.447V550.009H429.571Z" transform="translate(-422.038 -511.795)" fill="#cacaca" opacity="0.55"/>
      <rect id="Rectangle_1256-2" data-name="Rectangle 1256" width="14.57" height="2.395" transform="translate(25.513 65.978)" fill="#cacaca" opacity="0.55"/>
      <rect id="Rectangle_1257-2" data-name="Rectangle 1257" width="14.57" height="2.395" transform="translate(81.998 65.978)" fill="#cacaca" opacity="0.55"/>
      <path id="Path_12538-2" data-name="Path 12538" d="M797.617,626.992l.069-.859c.089-.337.932.721,1.032.744a2.5,2.5,0,0,1,.809-.037c-.036-1.542.2-.843.89-.147a2.5,2.5,0,1,1-2.8.3Z" transform="translate(-765.394 -567.648)" fill="#3f3d56" opacity="0.55"/>
      <path id="Path_12539-2" data-name="Path 12539" d="M798.476,643.592c-.919-.015-2.076,3.212.1,3.229,1.127.009,3.123.229,3.123.229s1.551-2.328.859-3.777Z" transform="translate(-766.565 -580.76)" fill="#3f3d56" opacity="0.55"/>
      <path id="Path_12540-2" data-name="Path 12540" d="M662.4,466.118v1.671h-.781l-.62-1.7" transform="translate(-628.464 -401.581)" fill="#3f3d56" opacity="0.55"/>
      <path id="Path_12541-2" data-name="Path 12541" d="M807.018,653.069c.016-.017.845.038.812-.03v-1.672c-.138-.224-.027,1.663-.061,1.641h-.73c-.036-.021-.575-1.733-.652-1.7a.03.03,0,0,0-.017.016.03.03,0,0,0,0,.023C806.4,651.368,806.959,653.08,807.018,653.069Z" transform="translate(-773.866 -586.83)" fill="#fff" opacity="0.55"/>
      <path id="Path_12542-2" data-name="Path 12542" d="M812.163,657.331c-.022.275,1.3.275,1.28,0C813.465,657.056,812.141,657.056,812.163,657.331Z" transform="translate(-780.896 -591.225)" fill="#3f3d56" opacity="0.55"/>
      <path id="Path_12543-2" data-name="Path 12543" d="M813.5,652.807c.076.019.335-1.25-.45-1.429C813.818,651.785,813.425,652.727,813.5,652.807Z" transform="translate(-781.278 -586.884)" fill="#fff" opacity="0.55"/>
      <path id="Path_12544-2" data-name="Path 12544" d="M817.456,656.022c0-.006.008-.013.011-.019l.1,0Z" transform="translate(-786.315 -590.378)" fill="#3f3d56" opacity="0.55"/>
      <path id="Path_12545-2" data-name="Path 12545" d="M816.9,650.963a.971.971,0,0,1,1.66.247c.4.739,2.128.189,1.913,1.182C819.4,652.164,816.211,652.942,816.9,650.963Z" transform="translate(-789.08 -586.284)" fill="#3f3d56" opacity="0.55"/>
      <path id="Path_12546-2" data-name="Path 12546" d="M800.089,644.193a2.587,2.587,0,0,0,1.987-1,.03.03,0,0,0-.052-.032,2.242,2.242,0,0,1-.956.773,3.578,3.578,0,0,1-3.129-.452A3.869,3.869,0,0,0,800.089,644.193Z" transform="translate(-766.054 -580.669)" fill="#fff" opacity="0.55"/>
      <path id="Path_12547-2" data-name="Path 12547" d="M805.959,640.334c.16.05.3-.336.152-.213a.152.152,0,0,1-.152.152c-.13.013-.124-.129-.183-.183C805.674,640.172,805.848,640.349,805.959,640.334Z" transform="translate(-772.056 -578.357)" fill="#fff" opacity="0.55"/>
      <path id="Path_12548-2" data-name="Path 12548" d="M803.349,653.081c.061.008.488-1.527.517-1.55a.031.031,0,0,0-.02-.038,15.338,15.338,0,0,0-.526,1.548.031.031,0,0,0,.029.04Z" transform="translate(-769.157 -586.97)" fill="#fff" opacity="0.55"/>
      <path id="Path_12549-2" data-name="Path 12549" d="M805.436,658.2c-.022.275,1.3.275,1.28,0C806.738,657.928,805.414,657.928,805.436,658.2Z" transform="translate(-772.524 -591.883)" fill="#3f3d56" opacity="0.55"/>
      <path id="Path_12550-2" data-name="Path 12550" d="M801.2,658.078c-.022.275,1.3.275,1.28,0C802.5,657.8,801.179,657.8,801.2,658.078Z" transform="translate(-767.253 -591.789)" fill="#3f3d56" opacity="0.55"/>
      <path id="Path_12551-2" data-name="Path 12551" d="M805.686,638.378c-.008.121.5.121.487,0C806.181,638.256,805.678,638.256,805.686,638.378Z" transform="translate(-772.042 -576.994)" fill="#fff" opacity="0.55"/>
      <path id="Path_12552-2" data-name="Path 12552" d="M800.34,634.266a.745.745,0,0,0-1.141,0,.826.826,0,1,1,1.141,0Z" transform="translate(-764.814 -572.875)" fill="#fff" opacity="0.55"/>
      <path id="Path_12553-2" data-name="Path 12553" d="M809.458,634.266a.745.745,0,0,0-1.141,0,.826.826,0,1,1,1.141,0Z" transform="translate(-776.162 -572.875)" fill="#fff" opacity="0.55"/>
      <path id="Path_12554-2" data-name="Path 12554" d="M799.979,635.41a.284.284,0,1,0,.277.284A.285.285,0,0,0,799.979,635.41Z" transform="translate(-764.66 -574.821)" fill="#3f3d56" opacity="0.55"/>
      <path id="Path_12555-2" data-name="Path 12555" d="M809.1,635.41a.284.284,0,1,0,.277.284A.285.285,0,0,0,809.1,635.41Z" transform="translate(-776.009 -574.821)" fill="#3f3d56" opacity="0.55"/>
      <path id="Path_12556-2" data-name="Path 12556" d="M810.792,639.108a.249.249,0,1,0,.242.249.249.249,0,0,0-.242-.249Z" transform="translate(-778.093 -577.615)" fill="#ff6584" opacity="0.55"/>
      <path id="Path_12557-2" data-name="Path 12557" d="M801.592,639.108a.249.249,0,1,0,.242.249.249.249,0,0,0-.242-.249Z" transform="translate(-766.643 -577.615)" fill="#ff6584" opacity="0.55"/>
    </g>
    <path id="Path_12704" data-name="Path 12704" d="M749.091,177.913c0,1.253-.04,2.5-.12,3.733a56.7,56.7,0,0,1-5.307,20.557c-.025.055-.05.11-.075.16-.14.3-.286.6-.436.892a57.014,57.014,0,0,1-49.714,31.6L694,267.249l7.342-3.869,1.313,2.5-8.6,4.525,1,57.142.05,3.007h-5.628l.055-3.007,1.709-92.684a56.779,56.779,0,0,1-40.177-17.48c-.361-.371-.712-.752-1.062-1.133-.015-.015-.025-.03-.035-.04a56.988,56.988,0,0,1-10.379-16.057c.055.065.115.12.17.185a56.969,56.969,0,0,1,27.013-73.414c.2-.1.4-.191.6-.291a57.014,57.014,0,0,1,73.865,22.427c.346.581.682,1.178,1,1.774A56.659,56.659,0,0,1,749.091,177.913Z" transform="translate(-715.659 573.049)" fill="#e5e5e5" opacity="0.43"/>
    <g id="Group_11019" data-name="Group 11019" transform="translate(-35.187 702.411)">
      <ellipse id="Ellipse_3785" data-name="Ellipse 3785" cx="16.275" cy="16.275" rx="16.275" ry="16.275" transform="translate(74.124 130.2)" fill="#f0f0f0"/>
      <path id="Path_12526" data-name="Path 12526" d="M353.5,557.635a16.276,16.276,0,0,0,27.119,17.225A16.276,16.276,0,1,1,353.5,557.635Z" transform="translate(-275.115 -422.031)" opacity="0.2"/>
      <path id="Path_12527" data-name="Path 12527" d="M246.827,402.139h.044l.8,46.142h-1.7Z" transform="translate(-156.383 -255.665)" fill="#3f3d56"/>
      <ellipse id="Ellipse_3786" data-name="Ellipse 3786" cx="32.813" cy="32.813" rx="32.813" ry="32.813" transform="translate(24.657 66.773)" fill="#cacaca"/>
      <path id="Path_12528" data-name="Path 12528" d="M222.25,398.577a32.816,32.816,0,0,0,54.676,34.728,32.816,32.816,0,1,1-54.676-34.728Z" transform="translate(-189.008 -320.908)" opacity="0.2"/>
      <path id="Path_12529" data-name="Path 12529" d="M155.04,273.408h.09l1.623,93.031h-3.426Z" transform="translate(-97.48 -173.822)" fill="#3f3d56"/>
      <rect id="Rectangle_1250-3" data-name="Rectangle 1250" width="150.401" height="44.585" transform="translate(123.407 144.464)" fill="#f0f0f0"/>
      <rect id="Rectangle_1251-3" data-name="Rectangle 1251" width="17.537" height="35.371" transform="translate(189.839 153.678)" fill="#cacaca"/>
      <rect id="Rectangle_1252" data-name="Rectangle 1252" width="132.864" height="41.018" transform="translate(132.175 91.854)" fill="#f0f0f0"/>
      <path id="Path_12530" data-name="Path 12530" d="M628.871,328.242h-159.8a1.338,1.338,0,0,1-.927-2.3l43.675-41.98V265.674a1.339,1.339,0,0,1,1.338-1.338h8.62a1.339,1.339,0,0,1,1.338,1.338V273.1l3.3-3.171a29.639,29.639,0,0,1,40.357-.671l63,56.649a1.338,1.338,0,0,1-.894,2.332Z" transform="translate(-350.361 -233.861)" fill="#cacaca"/>
      <path id="Path_12531" data-name="Path 12531" d="M444.39,280.742h0a8.471,8.471,0,0,1,8.471,8.471v11.444H435.919V289.213a8.471,8.471,0,0,1,8.471-8.471Z" transform="translate(-277.141 -178.485)" fill="#fff"/>
      <path id="Path_12532" data-name="Path 12532" d="M530.484,281.15h0a8.471,8.471,0,0,1,8.471,8.471v11.444H522.012V289.621a8.471,8.471,0,0,1,8.471-8.471Z" transform="translate(-331.876 -178.744)" fill="#fff"/>
      <path id="Path_12533" data-name="Path 12533" d="M616.577,281.558h0a8.471,8.471,0,0,1,8.471,8.471v11.443H608.106V290.029a8.471,8.471,0,0,1,8.471-8.471Z" transform="translate(-386.612 -179.004)" fill="#fff"/>
      <path id="Path_12534-3" data-name="Path 12534" d="M650.851,420.694h0a8.471,8.471,0,0,1,8.471,8.471v11.444H642.38V429.165A8.471,8.471,0,0,1,650.851,420.694Z" transform="translate(-408.402 -267.461)" fill="#fff"/>
      <path id="Path_12535-3" data-name="Path 12535" d="M420.725,420.694h0a8.471,8.471,0,0,1,8.471,8.471v11.444H412.254V429.165A8.471,8.471,0,0,1,420.725,420.694Z" transform="translate(-262.096 -267.461)" fill="#fff"/>
      <path id="Path_12536-3" data-name="Path 12536" d="M617.094,561.9,588.881,549.42a1.191,1.191,0,0,0-.481-.1H453.938a1.185,1.185,0,0,0-.448.088L422.78,561.89a1.189,1.189,0,0,0,.448,2.29H431.2V605.2H430.3v4.161H609.537V605.2h-1.486V564.181h8.562a1.189,1.189,0,0,0,.481-2.276ZM605.673,605.2h-172.1V564.18h172.1Z" transform="translate(-321.313 -416.744)" fill="#cacaca"/>
      <rect id="Rectangle_1253" data-name="Rectangle 1253" width="21.698" height="3.567" transform="translate(156.103 120.537)" fill="#cacaca"/>
      <rect id="Rectangle_1254" data-name="Rectangle 1254" width="21.698" height="3.567" transform="translate(187.907 120.537)" fill="#cacaca"/>
      <rect id="Rectangle_1255" data-name="Rectangle 1255" width="21.698" height="3.567" transform="translate(219.711 120.537)" fill="#cacaca"/>
      <rect id="Rectangle_1256-3" data-name="Rectangle 1256" width="21.698" height="3.567" transform="translate(231.6 171.958)" fill="#cacaca"/>
      <rect id="Rectangle_1257-3" data-name="Rectangle 1257" width="21.698" height="3.567" transform="translate(147.483 171.958)" fill="#cacaca"/>
      <path id="Path_12537" data-name="Path 12537" d="M476.227,713.388H145.864a.364.364,0,1,1,0-.729H476.227a.364.364,0,0,1,0,.729Z" transform="translate(-145.5 -520.59)" fill="#3f3d56"/>
      <path id="Path_12538-3" data-name="Path 12538" d="M802.848,627.519l-.1-1.28c-.133-.5-1.388,1.073-1.538,1.108a3.724,3.724,0,0,0-1.205-.054c.054-2.3-.3-1.255-1.326-.219-3.306,1.676-2.094,6.971,1.671,7C803.78,634.272,805.489,629.606,802.848,627.519Z" transform="translate(-559.543 -465.441)" fill="#3f3d56"/>
      <path id="Path_12539-3" data-name="Path 12539" d="M803.683,643.748c1.369-.022,3.092,4.783-.153,4.808-1.679.013-4.651.34-4.651.34s-2.31-3.467-1.28-5.625Z" transform="translate(-559.913 -476.476)" fill="#3f3d56"/>
      <path id="Path_12540-3" data-name="Path 12540" d="M661,466.133v2.489h1.164l.923-2.535" transform="translate(-420.237 -296.321)" fill="#3f3d56"/>
      <path id="Path_12541-3" data-name="Path 12541" d="M807.578,653.931c-.024-.026-1.258.056-1.209-.045V651.4c.206-.333.041,2.476.091,2.444h1.087c.054-.031.857-2.581.971-2.532a.044.044,0,0,1,.026.023.046.046,0,0,1,0,.035C808.5,651.4,807.665,653.947,807.578,653.931Z" transform="translate(-565.655 -481.584)" fill="#fff"/>
      <path id="Path_12542-3" data-name="Path 12542" d="M814.069,657.432c.033.409-1.939.409-1.906,0C812.131,657.023,814.1,657.023,814.069,657.432Z" transform="translate(-569.34 -485.283)" fill="#3f3d56"/>
      <path id="Path_12543-3" data-name="Path 12543" d="M813.207,653.506c-.114.028-.5-1.861.671-2.128C812.74,651.985,813.326,653.387,813.207,653.506Z" transform="translate(-569.907 -481.629)" fill="#fff"/>
      <path id="Path_12544-3" data-name="Path 12544" d="M817.622,656.032c-.006-.009-.011-.019-.017-.028l-.149.005Z" transform="translate(-572.705 -484.57)" fill="#3f3d56"/>
      <path id="Path_12545-3" data-name="Path 12545" d="M822.152,651.148a1.446,1.446,0,0,0-2.472.369c-.6,1.1-3.169.282-2.849,1.76C818.435,652.938,823.179,654.1,822.152,651.148Z" transform="translate(-572.291 -481.124)" fill="#3f3d56"/>
      <path id="Path_12546-3" data-name="Path 12546" d="M800.9,644.7a3.852,3.852,0,0,1-2.959-1.483.045.045,0,0,1,.077-.048,3.335,3.335,0,0,0,1.424,1.151c.887.449,2.508.46,4.66-.673A5.759,5.759,0,0,1,800.9,644.7Z" transform="translate(-560.297 -476.399)" fill="#fff"/>
      <path id="Path_12547-3" data-name="Path 12547" d="M806.064,640.453c-.238.074-.444-.5-.227-.318a.227.227,0,0,0,.227.227c.194.019.185-.192.272-.272C806.488,640.212,806.229,640.476,806.064,640.453Z" transform="translate(-565.26 -474.453)" fill="#fff"/>
      <path id="Path_12548-3" data-name="Path 12548" d="M804.091,653.859c-.09.012-.727-2.274-.769-2.308a.045.045,0,0,1,.029-.057,22.789,22.789,0,0,1,.783,2.306.046.046,0,0,1-.043.059Z" transform="translate(-563.718 -481.702)" fill="#fff"/>
      <path id="Path_12549-3" data-name="Path 12549" d="M807.342,658.3c.033.409-1.939.409-1.906,0C805.4,657.895,807.375,657.895,807.342,658.3Z" transform="translate(-565.063 -485.837)" fill="#3f3d56"/>
      <path id="Path_12550-3" data-name="Path 12550" d="M803.107,658.179c.033.409-1.939.409-1.906,0C801.168,657.769,803.14,657.769,803.107,658.179Z" transform="translate(-562.37 -485.758)" fill="#3f3d56"/>
      <path id="Path_12551-3" data-name="Path 12551" d="M806.412,638.422c.012.18-.738.18-.726,0C805.674,638.242,806.423,638.242,806.412,638.422Z" transform="translate(-565.222 -473.306)" fill="#fff"/>
      <path id="Path_12552-3" data-name="Path 12552" d="M799.318,634.966a1.11,1.11,0,0,1,1.7,0,1.23,1.23,0,1,0-1.7,0Z" transform="translate(-560.932 -469.84)" fill="#fff"/>
      <path id="Path_12553-3" data-name="Path 12553" d="M808.436,634.966a1.11,1.11,0,0,1,1.7,0,1.23,1.23,0,1,0-1.7,0Z" transform="translate(-566.729 -469.84)" fill="#fff"/>
      <path id="Path_12554-3" data-name="Path 12554" d="M800.114,635.41a.423.423,0,1,1-.412.423A.423.423,0,0,1,800.114,635.41Z" transform="translate(-561.418 -471.477)" fill="#3f3d56"/>
      <path id="Path_12555-3" data-name="Path 12555" d="M809.232,635.41a.423.423,0,1,1-.412.423.423.423,0,0,1,.412-.423Z" transform="translate(-567.215 -471.477)" fill="#3f3d56"/>
      <path id="Path_12556-3" data-name="Path 12556" d="M810.911,639.108a.371.371,0,1,1-.361.371.371.371,0,0,1,.361-.371Z" transform="translate(-568.315 -473.828)" fill="#ff6584"/>
      <path id="Path_12557-3" data-name="Path 12557" d="M801.711,639.108a.371.371,0,1,1-.361.371A.371.371,0,0,1,801.711,639.108Z" transform="translate(-562.466 -473.828)" fill="#ff6584"/>
      <path id="Path_12558" data-name="Path 12558" d="M369.87,206.547a.371.371,0,0,1-.37-.345,13.109,13.109,0,0,0-13.039-12.147c-.4,0-.811.02-1.235.06a.371.371,0,0,1-.356-.185,15.577,15.577,0,0,0-28.485,3.388.369.369,0,0,1-.365.268l-.1,0c-.051,0-.1,0-.154,0a10.986,10.986,0,0,0-10.705,8.674.371.371,0,0,1-.363.294H289.85a.371.371,0,1,1,0-.742H314.4a11.734,11.734,0,0,1,11.352-8.968,16.318,16.318,0,0,1,29.64-3.481c.365-.028.723-.043,1.067-.043a13.853,13.853,0,0,1,13.779,12.837.371.371,0,0,1-.344.4Z" transform="translate(-237.036 -185.338)" fill="#cbcbcb"/>
      <path id="Path_12559" data-name="Path 12559" d="M391.247,255.33H330.416a.371.371,0,1,1,0-.742h60.831a.371.371,0,1,1,0,.742Z" transform="translate(-262.827 -229.365)" fill="#cbcbcb"/>
      <path id="Path_12560" data-name="Path 12560" d="M335.54,270.1h-20.4a.371.371,0,1,1,0-.742h20.4a.371.371,0,0,1,0,.742Z" transform="translate(-253.115 -238.752)" fill="#cbcbcb"/>
      <path id="Path_12561" data-name="Path 12561" d="M904.87,282.548a.371.371,0,0,1-.369-.345,13.109,13.109,0,0,0-13.038-12.147c-.4,0-.811.02-1.235.06a.371.371,0,0,1-.357-.185,15.577,15.577,0,0,0-28.485,3.388.369.369,0,0,1-.365.268l-.1,0c-.051,0-.1,0-.154,0a10.986,10.986,0,0,0-10.705,8.674.371.371,0,0,1-.363.294H824.85a.371.371,0,1,1,0-.742H849.4a11.735,11.735,0,0,1,11.353-8.968,16.318,16.318,0,0,1,29.64-3.481c.365-.028.723-.043,1.067-.043a13.853,13.853,0,0,1,13.779,12.837.371.371,0,0,1-.344.4Z" transform="translate(-577.17 -233.656)" fill="#cbcbcb"/>
      <path id="Path_12562" data-name="Path 12562" d="M926.246,331.33h-60.83a.371.371,0,1,1,0-.742h60.832a.371.371,0,0,1,0,.742Z" transform="translate(-602.96 -277.683)" fill="#cbcbcb"/>
      <path id="Path_12563" data-name="Path 12563" d="M870.541,346.1h-20.4a.371.371,0,1,1,0-.742h20.4a.371.371,0,1,1,0,.742Z" transform="translate(-593.248 -287.07)" fill="#cbcbcb"/>
      <path id="Path_438" data-name="Path 438" d="M324.408,682.232c4.7,1.35,4.757-5.294,5.5-8.284-2.657,1.809-7.137,4.389-5.487,8.2" transform="translate(-259.028 -495.979)" fill="#cacaca"/>
      <path id="Path_439" data-name="Path 439" d="M325.149,693.379c-.618-3.492-.657-7.916,2.771-9.981.164-.1.315.156.151.259-3.309,2-3.21,6.275-2.632,9.642a.15.15,0,0,1-.29.08Z" transform="translate(-259.51 -501.972)" fill="#3f3d56"/>
      <path id="Path_442" data-name="Path 442" d="M329.887,699.688c2.151,2.888,5.147-.979,6.919-2.4-2.363-.126-6.138-.613-6.872,2.357" transform="translate(-262.727 -510.751)" fill="#cacaca"/>
      <path id="Path_443" data-name="Path 443" d="M324.036,705.144c1.216-2.328,3.158-4.96,6.118-4.628.192.016.144.313-.048.3-2.812-.291-4.642,2.238-5.8,4.454C324.216,705.433,323.94,705.313,324.036,705.144Z" transform="translate(-258.994 -512.851)" fill="#3f3d56"/>
      <path id="Path_438-2" data-name="Path 438" d="M971.157,682.232c-4.7,1.35-4.757-5.294-5.5-8.284,2.657,1.809,7.137,4.389,5.487,8.2" transform="translate(-666.923 -495.979)" fill="#cacaca"/>
      <path id="Path_439-2" data-name="Path 439" d="M974.83,693.379c.617-3.492.656-7.916-2.77-9.981-.164-.1-.315.156-.151.259,3.308,2,3.21,6.275,2.632,9.642a.15.15,0,0,0,.29.08Z" transform="translate(-670.856 -501.972)" fill="#3f3d56"/>
      <path id="Path_442-2" data-name="Path 442" d="M963.8,699.688c-2.151,2.888-5.147-.979-6.919-2.4,2.363-.126,6.138-.613,6.872,2.357" transform="translate(-661.347 -510.751)" fill="#cacaca"/>
      <path id="Path_443-2" data-name="Path 443" d="M970.8,705.144c-1.216-2.328-3.158-4.96-6.119-4.628-.192.016-.144.313.048.3,2.812-.291,4.642,2.238,5.8,4.454C970.62,705.433,970.9,705.313,970.8,705.144Z" transform="translate(-666.228 -512.851)" fill="#3f3d56"/>
      <path id="Path_12564" data-name="Path 12564" d="M79.9,515.8h1.384l.659-5.339H79.9Z" transform="translate(-50.796 -324.533)" fill="#ffb6b6"/>
      <path id="Path_12565" data-name="Path 12565" d="M224.429,709.219h2.726a1.737,1.737,0,0,1,1.737,1.737v.057h-4.463Z" transform="translate(-195.68 -518.402)" fill="#2f2e41"/>
      <path id="Path_12566" data-name="Path 12566" d="M97.876,515.8H99.26l.659-5.339H97.876Z" transform="translate(-62.226 -324.533)" fill="#ffb6b6"/>
      <path id="Path_12567" data-name="Path 12567" d="M242.407,709.219h2.726a1.737,1.737,0,0,1,1.737,1.737v.056h-4.463Z" transform="translate(-207.11 -518.402)" fill="#2f2e41"/>
      <path id="Path_12568" data-name="Path 12568" d="M241.759,621.364a1.213,1.213,0,0,0-.284-1.838l-2.253-10.815-2.454.967L239.754,620a1.219,1.219,0,0,0,2,1.359Z" transform="translate(-203.525 -454.503)" fill="#ffb6b6"/>
      <path id="Path_12569" data-name="Path 12569" d="M219.044,636.5l-1.02,1.036a14.829,14.829,0,0,0,1,8.952l1.4,14.333,2.519.19.752-16.675,3.469,5.535-.606,11.081,2.784-.064,1.258-12.278L227.163,635.8Z" transform="translate(-191.426 -471.724)" fill="#2f2e41"/>
      <path id="Path_12570" data-name="Path 12570" d="M222.99,614.049a39.088,39.088,0,0,1-4.595-.3l-.061-.008,1.52-6.682-.524-8.6,4.944-.17a1.817,1.817,0,0,1,1.863,1.554l1.012,6.859.936,6.086-.013.018C227.4,613.792,225.151,614.049,222.99,614.049Z" transform="translate(-191.805 -447.876)" fill="#cacaca"/>
      <path id="Path_12571" data-name="Path 12571" d="M233.408,599.506l1-1.259s1.761-1.2,2.318,1.376,1.593,6.77,1.593,6.77l-3.443.279Z" transform="translate(-201.389 -447.672)" fill="#cacaca"/>
      <path id="Path_12572" data-name="Path 12572" d="M206.749,621.674a1.213,1.213,0,0,1,.284-1.838l2.252-10.815,2.454.967-2.986,10.327a1.219,1.219,0,0,1-2,1.359Z" transform="translate(-184.248 -454.7)" fill="#ffb6b6"/>
      <path id="Path_12573" data-name="Path 12573" d="M215.756,599.817l-1-1.259s-1.761-1.2-2.318,1.376-1.593,6.77-1.593,6.77l3.443.279Z" transform="translate(-187.041 -447.869)" fill="#cacaca"/>
      <path id="Path_12574" data-name="Path 12574" d="M223.641,582.423h-6.549a.508.508,0,0,1-.508-.508v-2.822a3.782,3.782,0,1,1,7.564,0v2.822a.509.509,0,0,1-.508.508Z" transform="translate(-190.693 -433.268)" fill="#2f2e41"/>
      <ellipse id="Ellipse_3787" data-name="Ellipse 3787" cx="2.773" cy="2.773" rx="2.773" ry="2.773" transform="translate(27.624 143.439)" fill="#ffb6b6"/>
      <path id="Path_12575" data-name="Path 12575" d="M228.379,581.148h-4l-.041-.575-.205.575h-.617l-.081-1.139-.407,1.139h-1.193v-.057a3,3,0,0,1,2.992-2.992h.565a3,3,0,0,1,2.992,2.992Z" transform="translate(-194.029 -435.042)" fill="#2f2e41"/>
      <path id="Path_12576" data-name="Path 12576" d="M223.451,586.91a.493.493,0,0,1-.09-.008l-2.932-.517v-4.846h3.228l-.08.093c-1.112,1.3-.274,3.4.324,4.537a.5.5,0,0,1-.04.531A.506.506,0,0,1,223.451,586.91Z" transform="translate(-193.137 -437.228)" fill="#2f2e41"/>
    </g>
    <path id="Path_12705" data-name="Path 12705" d="M720.545,163.646c0,.939-.03,1.874-.09,2.8a42.5,42.5,0,0,1-3.977,15.407c-.019.041-.038.083-.056.12-.105.225-.214.447-.327.669a42.729,42.729,0,0,1-37.258,23.681l.424,24.278,5.5-2.9.984,1.871-6.445,3.392.747,42.825.037,2.254h-4.218l.041-2.254,1.281-69.461a42.553,42.553,0,0,1-30.111-13.1c-.27-.278-.533-.563-.8-.849-.011-.011-.019-.023-.026-.03a42.709,42.709,0,0,1-7.778-12.034c.041.049.086.09.128.139a42.7,42.7,0,0,1,20.244-55.02c.146-.071.3-.143.447-.218a42.729,42.729,0,0,1,55.358,16.808c.259.436.511.883.751,1.33A42.464,42.464,0,0,1,720.545,163.646Z" transform="translate(-226.043 637.387)" fill="#e5e5e5" opacity="0.35"/>
    <g id="Group_11032" data-name="Group 11032" transform="translate(269.063 780.278)">
      <ellipse id="Ellipse_3785-2" data-name="Ellipse 3785" cx="9.734" cy="9.734" rx="9.734" ry="9.734" transform="translate(134.223 77.872)" fill="#f0f0f0"/>
      <path id="Path_12526-2" data-name="Path 12526" d="M365.592,557.635a9.735,9.735,0,0,1-16.22,10.3,9.735,9.735,0,1,0,16.22-10.3Z" transform="translate(-214.448 -476.531)" opacity="0.2"/>
      <path id="Path_12527-2" data-name="Path 12527" d="M246.485,402.139h-.027l-.481,27.6h1.016Z" transform="translate(-102.555 -314.533)" fill="#3f3d56"/>
      <ellipse id="Ellipse_3786-2" data-name="Ellipse 3786" cx="19.625" cy="19.625" rx="19.625" ry="19.625" transform="translate(137.782 39.936)" fill="#cacaca"/>
      <path id="Path_12528-2" data-name="Path 12528" d="M246.636,398.577a19.627,19.627,0,0,1-32.7,20.771,19.627,19.627,0,1,0,32.7-20.771Z" transform="translate(-74.738 -352.123)" opacity="0.2"/>
      <path id="Path_12529-2" data-name="Path 12529" d="M154.352,273.408H154.3l-.971,55.641h2.049Z" transform="translate(9.246 -213.846)" fill="#3f3d56"/>
      <rect id="Rectangle_1250-4" data-name="Rectangle 1250" width="78.78" height="37.087" transform="translate(38.278 76.211)" fill="#f0f0f0"/>
      <rect id="Rectangle_1251-4" data-name="Rectangle 1251" width="10.489" height="21.155" transform="translate(73.994 91.914)" fill="#cacaca"/>
      <path id="Path_12534-4" data-name="Path 12534" d="M647.447,420.694h0a5.067,5.067,0,0,0-5.066,5.067V432.6h10.133v-6.844A5.067,5.067,0,0,0,647.447,420.694Z" transform="translate(-594.431 -329.046)" fill="#fff"/>
      <path id="Path_12535-4" data-name="Path 12535" d="M417.321,420.694h0a5.067,5.067,0,0,0-5.067,5.067V432.6h10.133v-6.844A5.067,5.067,0,0,0,417.321,420.694Z" transform="translate(-314.172 -329.046)" fill="#fff"/>
      <path id="Path_12536-4" data-name="Path 12536" d="M422.43,543.958l15.606-10.277a.481.481,0,0,1,.266-.084l39.259-21.8,35.116,21.8a.475.475,0,0,1,.248.072l16.987,10.277a1.13,1.13,0,0,1,.4,1.095c-.06.459-.331.791-.645.791h-4.407V579.6h.493v3.426H426.611V579.6h.822V545.832H422.7c-.311,0-.579-.324-.643-.776A1.15,1.15,0,0,1,422.43,543.958Zm6.317,35.642h95.193V545.832H428.748Z" transform="translate(-398.235 -467.713)" fill="#cacaca"/>
      <rect id="Rectangle_1256-4" data-name="Rectangle 1256" width="12.978" height="2.133" transform="translate(46.527 102.848)" fill="#cacaca"/>
      <rect id="Rectangle_1257-4" data-name="Rectangle 1257" width="12.978" height="2.133" transform="translate(96.838 102.848)" fill="#cacaca"/>
      <path id="Path_12537-2" data-name="Path 12537" d="M145.718,713.1H343.306a.218.218,0,0,0,0-.436H145.718a.218.218,0,0,0,0,.436Z" transform="translate(-145.5 -597.784)" fill="#3f3d56"/>
      <path id="Path_12538-4" data-name="Path 12538" d="M797.523,626.874l.061-.766c.08-.3.83.642.919.663a2.222,2.222,0,0,1,.721-.033c-.032-1.374.179-.751.793-.131a2.225,2.225,0,1,1-2.495.266Z" transform="translate(-745.019 -529.936)" fill="#3f3d56"/>
      <path id="Path_12539-4" data-name="Path 12539" d="M798.351,643.557c-.819-.013-1.849,2.861.091,2.876,1,.008,2.782.2,2.782.2s1.382-2.074.766-3.364Z" transform="translate(-746.125 -543.512)" fill="#3f3d56"/>
      <path id="Path_12540-4" data-name="Path 12540" d="M662.244,466.114V467.6h-.7L661,466.087" transform="translate(-608.217 -364.551)" fill="#3f3d56"/>
      <path id="Path_12541-4" data-name="Path 12541" d="M806.946,652.877c.014-.016.753.034.723-.027v-1.489c-.123-.2-.024,1.481-.054,1.462h-.65c-.032-.019-.513-1.544-.581-1.514a.027.027,0,0,0-.016.035C806.394,651.361,806.894,652.886,806.946,652.877Z" transform="translate(-753.615 -549.797)" fill="#fff"/>
      <path id="Path_12542-4" data-name="Path 12542" d="M812.163,657.308c-.02.245,1.159.245,1.14,0C813.322,657.064,812.143,657.064,812.163,657.308Z" transform="translate(-760.51 -554.347)" fill="#3f3d56"/>
      <path id="Path_12543-4" data-name="Path 12543" d="M813.456,652.651c.068.017.3-1.113-.4-1.273C813.735,651.741,813.384,652.579,813.456,652.651Z" transform="translate(-760.948 -549.852)" fill="#fff"/>
      <path id="Path_12544-4" data-name="Path 12544" d="M817.456,656.02c0-.005.007-.011.01-.017l.089,0Z" transform="translate(-765.915 -553.47)" fill="#3f3d56"/>
      <path id="Path_12545-4" data-name="Path 12545" d="M816.89,650.921a.865.865,0,0,1,1.479.22c.359.658,1.9.169,1.7,1.053C819.113,651.992,816.275,652.684,816.89,650.921Z" transform="translate(-768.307 -549.231)" fill="#3f3d56"/>
      <path id="Path_12546-4" data-name="Path 12546" d="M799.854,644.079a2.3,2.3,0,0,0,1.77-.887.027.027,0,0,0-.046-.028,2,2,0,0,1-.852.688,3.187,3.187,0,0,1-2.787-.4A3.444,3.444,0,0,0,799.854,644.079Z" transform="translate(-745.736 -543.417)" fill="#fff"/>
      <path id="Path_12547-4" data-name="Path 12547" d="M805.935,640.307c.142.044.266-.3.136-.19a.136.136,0,0,1-.136.136c-.116.011-.11-.115-.163-.163C805.682,640.163,805.837,640.321,805.935,640.307Z" transform="translate(-751.935 -541.023)" fill="#fff"/>
      <path id="Path_12548-4" data-name="Path 12548" d="M803.346,652.908c.054.007.435-1.36.46-1.38a.027.027,0,0,0-.018-.034,13.7,13.7,0,0,0-.468,1.379.028.028,0,0,0,0,.024A.027.027,0,0,0,803.346,652.908Z" transform="translate(-749.088 -549.942)" fill="#fff"/>
      <path id="Path_12549-4" data-name="Path 12549" d="M805.436,658.18c-.02.245,1.16.245,1.14,0C806.6,657.936,805.416,657.936,805.436,658.18Z" transform="translate(-752.318 -555.029)" fill="#3f3d56"/>
      <path id="Path_12550-4" data-name="Path 12550" d="M801.2,658.055c-.02.245,1.159.245,1.14,0C802.36,657.811,801.181,657.811,801.2,658.055Z" transform="translate(-747.16 -554.931)" fill="#3f3d56"/>
      <path id="Path_12551-4" data-name="Path 12551" d="M805.686,638.368c-.007.108.441.108.434,0S805.678,638.26,805.686,638.368Z" transform="translate(-751.916 -539.613)" fill="#fff"/>
      <path id="Path_12552-4" data-name="Path 12552" d="M800.187,634.109a.664.664,0,0,0-1.016,0,.735.735,0,1,1,1.016,0Z" transform="translate(-744.741 -535.348)" fill="#fff"/>
      <path id="Path_12553-4" data-name="Path 12553" d="M809.305,634.109a.664.664,0,0,0-1.016,0,.735.735,0,1,1,1.016,0Z" transform="translate(-755.845 -535.348)" fill="#fff"/>
      <path id="Path_12554-4" data-name="Path 12554" d="M799.948,635.41a.253.253,0,1,0,.246.253A.253.253,0,0,0,799.948,635.41Z" transform="translate(-744.688 -537.363)" fill="#3f3d56"/>
      <path id="Path_12555-4" data-name="Path 12555" d="M809.066,635.41a.253.253,0,1,0,.246.253.253.253,0,0,0-.246-.253Z" transform="translate(-755.792 -537.363)" fill="#3f3d56"/>
      <path id="Path_12556-4" data-name="Path 12556" d="M810.766,639.108a.222.222,0,1,0,.216.222A.222.222,0,0,0,810.766,639.108Z" transform="translate(-757.838 -540.255)" fill="#ff6584"/>
      <path id="Path_12557-4" data-name="Path 12557" d="M801.566,639.108a.222.222,0,1,0,.216.222.222.222,0,0,0-.216-.222Z" transform="translate(-746.634 -540.255)" fill="#ff6584"/>
      <path id="Path_12558-2" data-name="Path 12558" d="M289.7,198.023a.222.222,0,0,0,.221-.206,7.841,7.841,0,0,1,7.8-7.265c.237,0,.485.012.738.036a.222.222,0,0,0,.213-.111,9.316,9.316,0,0,1,17.037,2.026.221.221,0,0,0,.218.16l.059,0,.092,0a6.571,6.571,0,0,1,6.4,5.188.222.222,0,0,0,.217.176H337.56a.222.222,0,0,0,0-.444H322.875a7.018,7.018,0,0,0-6.79-5.364,9.76,9.76,0,0,0-17.727-2.082c-.218-.017-.432-.026-.638-.026a8.286,8.286,0,0,0-8.241,7.678.222.222,0,0,0,.206.237Z" transform="translate(-171.124 -185.339)" fill="#cbcbcb"/>
      <path id="Path_12559-2" data-name="Path 12559" d="M330.266,255.032h36.383a.222.222,0,0,0,0-.444H330.266a.222.222,0,1,0,0,.444Z" transform="translate(-209.05 -239.502)" fill="#cbcbcb"/>
      <path id="Path_12560-2" data-name="Path 12560" d="M314.99,269.8h12.2a.222.222,0,1,0,0-.444h-12.2a.222.222,0,0,0,0,.444Z" transform="translate(-166.265 -251.052)" fill="#cbcbcb"/>
      <path id="Path_12561-2" data-name="Path 12561" d="M824.7,274.024a.222.222,0,0,0,.221-.206,7.841,7.841,0,0,1,7.8-7.265c.236,0,.485.012.738.036a.222.222,0,0,0,.213-.111,9.316,9.316,0,0,1,17.037,2.026.221.221,0,0,0,.218.16l.059,0,.092,0a6.571,6.571,0,0,1,6.4,5.188.222.222,0,0,0,.217.176H872.56a.222.222,0,1,0,0-.444H857.875a7.018,7.018,0,0,0-6.79-5.364,9.76,9.76,0,0,0-17.727-2.082c-.218-.017-.432-.026-.638-.026a8.286,8.286,0,0,0-8.241,7.678.222.222,0,0,0,.206.237Z" transform="translate(-822.672 -244.782)" fill="#cbcbcb"/>
      <path id="Path_12562-2" data-name="Path 12562" d="M865.267,331.032h36.382a.222.222,0,1,0,0-.444H865.266a.222.222,0,1,0,0,.444Z" transform="translate(-860.599 -298.946)" fill="#cbcbcb"/>
      <path id="Path_12563-2" data-name="Path 12563" d="M849.99,345.8h12.2a.222.222,0,1,0,0-.444h-12.2a.222.222,0,0,0,0,.444Z" transform="translate(-817.814 -310.495)" fill="#cbcbcb"/>
      <path id="Path_438-3" data-name="Path 438" d="M327.362,678.9c-2.812.807-2.845-3.166-3.292-4.954,1.589,1.082,4.269,2.625,3.282,4.906" transform="translate(-168.441 -567.506)" fill="#cacaca"/>
      <path id="Path_439-3" data-name="Path 439" d="M326.617,689.359c.369-2.089.393-4.735-1.657-5.969-.1-.062-.188.093-.091.155,1.979,1.2,1.92,3.753,1.574,5.767a.09.09,0,0,0,.173.048Z" transform="translate(-167.851 -574.878)" fill="#3f3d56"/>
      <path id="Path_442-3" data-name="Path 442" d="M334.025,698.682c-1.287,1.727-3.078-.586-4.138-1.433,1.413-.075,3.671-.366,4.11,1.41" transform="translate(-176.169 -585.679)" fill="#cacaca"/>
      <path id="Path_443-3" data-name="Path 443" d="M327.748,703.272c-.727-1.392-1.889-2.967-3.659-2.768-.115.01-.086.187.029.177,1.682-.174,2.776,1.338,3.467,2.664C327.64,703.445,327.805,703.373,327.748,703.272Z" transform="translate(-168.625 -588.263)" fill="#3f3d56"/>
      <path id="Path_438-4" data-name="Path 438" d="M965.854,678.9c2.812.807,2.845-3.166,3.292-4.954-1.589,1.082-4.269,2.625-3.282,4.906" transform="translate(-949.791 -567.506)" fill="#cacaca"/>
      <path id="Path_439-4" data-name="Path 439" d="M972.03,689.359c-.369-2.089-.393-4.735,1.657-5.969.1-.062.188.093.09.155-1.979,1.2-1.92,3.753-1.574,5.767a.09.09,0,0,1-.173.048Z" transform="translate(-955.812 -574.878)" fill="#3f3d56"/>
      <path id="Path_442-4" data-name="Path 442" d="M956.881,698.682c1.287,1.727,3.078-.586,4.138-1.433-1.413-.075-3.671-.366-4.11,1.41" transform="translate(-939.753 -585.679)" fill="#cacaca"/>
      <path id="Path_443-4" data-name="Path 443" d="M964.572,703.272c.727-1.392,1.889-2.967,3.659-2.768.115.01.086.187-.029.177-1.682-.174-2.776,1.338-3.467,2.664C964.679,703.445,964.515,703.373,964.572,703.272Z" transform="translate(-948.711 -588.263)" fill="#3f3d56"/>
      <path id="Path_438-5" data-name="Path 438" d="M1009.047,652.946c4.9,1.407,4.959-5.52,5.739-8.637-2.771,1.886-7.442,4.576-5.721,8.552" transform="translate(-1004.808 -544.323)" fill="#cacaca"/>
      <path id="Path_439-5" data-name="Path 439" d="M1019.805,671.173c-.644-3.641-.685-8.254,2.889-10.406.171-.108.328.163.158.27-3.45,2.087-3.347,6.542-2.745,10.052a.157.157,0,0,1-.3.083Z" transform="translate(-1015.293 -557.177)" fill="#3f3d56"/>
      <path id="Path_442-5" data-name="Path 442" d="M993.4,687.426c2.243,3.011,5.366-1.021,7.213-2.5-2.464-.131-6.4-.639-7.165,2.457" transform="translate(-987.301 -576.005)" fill="#cacaca"/>
      <path id="Path_443-5" data-name="Path 443" d="M1006.8,695.428c1.268-2.427,3.292-5.172,6.379-4.825.2.017.15.326-.05.309-2.932-.3-4.839,2.333-6.043,4.644C1006.99,695.73,1006.7,695.6,1006.8,695.428Z" transform="translate(-1002.914 -580.509)" fill="#3f3d56"/>
    </g>
  </g>
</svg>
