<svg xmlns="http://www.w3.org/2000/svg" width="309.495" height="294.277" viewBox="0 0 309.495 294.277">
  <g id="Group_11102" data-name="Group 11102" transform="translate(-21.132)">
    <path id="Path_13077" data-name="Path 13077" d="M263.567,550.559l-5.478-8.852a131.033,131.033,0,0,1,6.074-13.462l3.6,3.027-2.8-4.532c2.868-5.375,5.108-8.753,5.108-8.753s10.98,18.1,14.388,37.093l-7.481,11.067,8.163-6.326a53.017,53.017,0,0,1,.307,6.655c-.451,22.407-8.135,40.424-17.162,40.242s-15.98-18.493-15.529-40.9a69.791,69.791,0,0,1,4.161-20.861Z" transform="translate(-206.324 -338.115)" fill="#e6e6e6"/>
    <path id="Path_13078" data-name="Path 13078" d="M211.371,572.6l-9.265-4.746a131.04,131.04,0,0,1-1.759-14.664l4.643.732-4.744-2.43c-.323-6.084-.152-10.134-.152-10.134s18.754,9.817,31.49,24.317l-.684,13.341,3.718-9.635a53.031,53.031,0,0,1,3.7,5.538c11.2,19.415,13.932,38.81,6.11,43.32S221.193,610.67,210,591.255a69.792,69.792,0,0,1-7.221-20.009Z" transform="translate(-178.918 -350.275)" fill="#e6e6e6"/>
    <path id="Path_13079" data-name="Path 13079" d="M283.011,725.123c-10.676.683-22.309-.04-34.684,0V696.79c10.9,1.7,22.533,1.523,34.684,0Z" transform="translate(-204.035 -431.141)" fill="#e6e6e6"/>
    <path id="Path_13080" data-name="Path 13080" d="M565.8,164.388,452.5,182.631l-.48-110.146L565.318,0Z" transform="translate(-235.172)" fill="#e6e6e6"/>
    <path id="Path_13081" data-name="Path 13081" d="M560.963,173.938l-97.937,21.123V102.886L560.963,49.73Z" transform="translate(-240.899 -25.873)" fill="#fff"/>
    <path id="Path_13082" data-name="Path 13082" d="M557.609,114.306l-82.574,36.978V138.31l82.574-40.793Z" transform="translate(-247.147 -50.735)" fill="#3f3d56"/>
    <path id="Path_13083" data-name="Path 13083" d="M557.609,186.6l-82.574,29.124v-12.8l82.574-32.889Z" transform="translate(-247.147 -88.464)" fill="#6c63ff"/>
    <path id="Path_13084" data-name="Path 13084" d="M694.406,313.921a.309.309,0,0,1,.6-.02l1.337,4.214,1.6,5.048a.31.31,0,0,1-.176.379l-3.1,1.29-2.72,1.134a.309.309,0,0,1-.419-.36l1.488-6.043Z" transform="translate(-434.615 -231.823)" fill="#e6e6e6"/>
    <path id="Path_13085" data-name="Path 13085" d="M684.338,379.246a.511.511,0,0,1,.983-.032l1.121,3.532,1.546,4.872a.511.511,0,0,1-.29.626l-2.925,1.219-2.352.98a.511.511,0,0,1-.692-.593l1.392-5.656Z" transform="translate(-429.512 -265.73)" fill="#e6e6e6"/>
    <path id="Path_13086" data-name="Path 13086" d="M557.609,257.549,475.035,278.82V265.23l82.574-25.266Z" transform="translate(-247.147 -124.846)" fill="#f2f2f2"/>
    <path id="Path_13087" data-name="Path 13087" d="M792.961,290.556c0,2.891-1.3,5.766-2.881,6.416s-2.835-1.145-2.835-3.99,1.264-5.707,2.835-6.4S792.961,287.664,792.961,290.556Z" transform="translate(-484.418 -217.645)" fill="#3f3d56"/>
    <path id="Path_13088" data-name="Path 13088" d="M793.079,295.226a2.45,2.45,0,0,1-.96,2.148c-.528.222-.955-.376-.955-1.335a2.459,2.459,0,0,1,.955-2.146C792.648,293.666,793.079,294.262,793.079,295.226Z" transform="translate(-486.457 -221.501)" fill="#fff"/>
    <path id="Path_13089" data-name="Path 13089" d="M792.961,360.607c0,2.891-1.3,5.766-2.881,6.416s-2.835-1.145-2.835-3.99,1.264-5.707,2.835-6.4S792.961,357.715,792.961,360.607Z" transform="translate(-484.418 -254.091)" fill="#6c63ff"/>
    <path id="Path_13090" data-name="Path 13090" d="M793.079,365.278a2.45,2.45,0,0,1-.96,2.148c-.528.222-.955-.376-.955-1.335a2.46,2.46,0,0,1,.955-2.146C792.648,363.717,793.079,364.314,793.079,365.278Z" transform="translate(-486.457 -257.947)" fill="#fff"/>
    <path id="Path_13091" data-name="Path 13091" d="M792.961,430.658c0,2.891-1.3,5.766-2.881,6.416s-2.835-1.145-2.835-3.99,1.264-5.707,2.835-6.4S792.961,427.766,792.961,430.658Z" transform="translate(-484.418 -290.536)" fill="#f2f2f2"/>
    <path id="Path_13092" data-name="Path 13092" d="M793.079,435.329a2.45,2.45,0,0,1-.96,2.148c-.528.221-.955-.376-.955-1.335a2.46,2.46,0,0,1,.955-2.146C792.648,433.769,793.079,434.365,793.079,435.329Z" transform="translate(-486.457 -294.392)" fill="#fff"/>
    <path id="Path_13093" data-name="Path 13093" d="M700.338,437.292a.511.511,0,0,1,.983-.032l1.121,3.532,1.546,4.872a.511.511,0,0,1-.29.626l-2.925,1.219-2.352.98a.511.511,0,0,1-.692-.593l1.393-5.656Z" transform="translate(-437.837 -295.93)" fill="#e6e6e6"/>
    <path id="Path_13094" data-name="Path 13094" d="M658.2,408.19l4.467-4.12s10.111-6.965,6.579-10.793-10.65,5.1-10.65,5.1l-4.417,2.894Z" transform="translate(-415.186 -272.736)" fill="#a0616a"/>
    <path id="Path_13095" data-name="Path 13095" d="M536.312,417.1l-2.6,3.581s-3.636,13.984,14.765,14.727c0,0,23.5,11.393,29.319,4.255s21.87-24.307,21.87-24.307l-9.443-9.6-19.243,20.113-18.668-9.355S542.693,411.211,536.312,417.1Z" transform="translate(-352.359 -279.725)" fill="#2f2e41"/>
    <path id="Path_13096" data-name="Path 13096" d="M331.5,424.679l-24.365,89.766,3.069.614,25.592-90.38Z" transform="translate(-159.793 -220.948)" fill="#e6e6e6"/>
    <path id="Path_13097" data-name="Path 13097" d="M414.833,424.679,439.2,514.445l-3.069.614-25.592-90.38Z" transform="translate(-213.59 -220.948)" fill="#e6e6e6"/>
    <path id="Path_13098" data-name="Path 13098" d="M384.795,419.508l4.086,91.757,3.548.158-4.564-93.143Z" transform="translate(-200.197 -217.619)" fill="#e6e6e6"/>
    <path id="Path_13099" data-name="Path 13099" d="M530.327,557.133c0,2.327-6.371,4.826-14.733,5.628-8.975.862-16.748-.537-16.748-3.183s7.773-5.252,16.748-5.785C523.956,553.3,530.327,554.806,530.327,557.133Z" transform="translate(-334.373 -356.696)" fill="#e6e6e6"/>
    <path id="Path_13100" data-name="Path 13100" d="M579.7,528.053l6.139,4.3s26.4,19.031,23.942,26.4-15.961,36.833-15.961,36.833l-17.189-5.525,19.644-31.308-10.436-9.822-5.525-13.505Z" transform="translate(-374.839 -343.353)" fill="#2f2e41"/>
    <path id="Path_13101" data-name="Path 13101" d="M525.239,502.59s-12.278,19.03-4.911,24.555,28.238,27.011,28.238,27.011l4.3,9.822L568.211,613.7l19.031-9.822-17.189-38.675s-1.842-14.119-7.981-22.1-8.594-19.644-8.594-19.644l1.842-5.525-10.992-17.588Z" transform="translate(-344.324 -328.939)" fill="#2f2e41"/>
    <path id="Path_13102" data-name="Path 13102" d="M578.461,657.822l-11.034-3.358s-11.915-.491-11.3,3.806,10.436,32.536,13.506,30.694.614-10.436.614-10.436Z" transform="translate(-364.162 -409.111)" fill="#2f2e41"/>
    <path id="Path_13103" data-name="Path 13103" d="M389.015,237.21l-6.139,6.753,9.822,15.961,4.3-12.278Z" transform="translate(-199.199 -123.413)" fill="#a0616a"/>
    <path id="Path_13104" data-name="Path 13104" d="M546.519,409.938l-10.9-18.056-3.83.867v6.139l-1.228,51.567,20.258-3.069S552.044,414.236,546.519,409.938Z" transform="translate(-350.871 -272.507)" fill="#6c63ff"/>
    <path id="Path_13105" data-name="Path 13105" d="M509.037,410.264l-9.208-16.575-7.981,3.683-14.119,57.705-8.594,16.575s28.239,14.119,34.992,0,7.367-45.428,7.367-45.428Z" transform="translate(-318.915 -273.447)" fill="#2f2e41"/>
    <path id="Path_13106" data-name="Path 13106" d="M498.67,403.615l-3.683-2.456s-14.119-3.069-14.119,15.347c0,0-10.436,23.942-3.069,29.467s25.169,20.872,25.169,20.872l9.208-9.822L491.3,438.606l8.594-19.03S504.808,409.754,498.67,403.615Z" transform="translate(-322.052 -277.234)" fill="#2f2e41"/>
    <path id="Path_13107" data-name="Path 13107" d="M533.118,524.673l4.3,4.3s7.367,9.822,11.05,6.139-5.525-10.436-5.525-10.436l-3.069-4.3Z" transform="translate(-352.203 -339.358)" fill="#a0616a"/>
    <path id="Path_13108" data-name="Path 13108" d="M561.384,417.907l10.534,25.829s4.3,12.892,4.3,17.8v13.506L564.551,459.7S558.216,419.7,561.384,417.907Z" transform="translate(-366.448 -286.047)" fill="#2f2e41"/>
    <path id="Path_13109" data-name="Path 13109" d="M631.056,719.606s-3.041,11.974.95,12.988,37.481,1.871,37.5-3.788-21.735-10.335-21.735-10.335l-8.037-5.158Z" transform="translate(-402.581 -439.737)" fill="#2f2e41"/>
    <circle id="Ellipse_3889" data-name="Ellipse 3889" cx="11.05" cy="11.05" r="11.05" transform="translate(186.439 103.054)" fill="#a0616a"/>
    <path id="Path_13110" data-name="Path 13110" d="M565.127,358.9s2.158-9.353,0-11.511v1.439s-1.439-5.036-4.317-3.6c0,0-3.6-2.878-4.317-1.439-4.233-3.827-23-.239-13.892,19.855,0,0,1.661-6.186,1.661-4.027,0,0,4.317-4.317,5.036-5.756S562.249,361.781,565.127,358.9Z" transform="translate(-355.854 -246.784)" fill="#2f2e41"/>
  </g>
</svg>
