<svg xmlns="http://www.w3.org/2000/svg" width="385.133" height="335.852" viewBox="0 0 385.133 335.852">
  <g id="Group_11100" data-name="Group 11100" transform="translate(-11.212 0)">
    <path id="Path_13039" data-name="Path 13039" d="M371.546,314.456a4.009,4.009,0,0,0,0,8.019h50.4v-1.749a7.506,7.506,0,0,1,3.378-6.27Z" transform="translate(-285.866 -205.567)" fill="#e6e6e6"/>
    <path id="Path_13040" data-name="Path 13040" d="M446.09,288.476H429.05a4.009,4.009,0,0,1,0-8.019H446.09a4.009,4.009,0,0,1,0,8.019Z" transform="translate(-314.551 -188.607)" fill="#e6e6e6"/>
    <path id="Path_13041" data-name="Path 13041" d="M320.948,231.476H254.8a4.009,4.009,0,0,1,0-8.019h66.153a4.009,4.009,0,0,1,0,8.019Z" transform="translate(-227.626 -160.173)" fill="#e6e6e6"/>
    <path id="Path_13042" data-name="Path 13042" d="M320.815,197.476H312.3a4.009,4.009,0,0,1,0-8.019h8.52a4.009,4.009,0,0,1,0,8.019Z" transform="translate(-256.309 -143.212)" fill="#e6e6e6"/>
    <path id="Path_13043" data-name="Path 13043" d="M404.537,360.2H342.174a8.529,8.529,0,0,1-8.52-8.52V253.031a8.529,8.529,0,0,1,8.52-8.52h99.618a8.529,8.529,0,0,1,8.52,8.52v24.45h-1v-24.45a7.526,7.526,0,0,0-7.517-7.517H342.174a7.526,7.526,0,0,0-7.517,7.517v98.648a7.526,7.526,0,0,0,7.517,7.517h62.363Z" transform="translate(-268.963 -170.675)" fill="#ccc"/>
    <path id="Path_13044" data-name="Path 13044" d="M280.924,260.711h-45.46a8.529,8.529,0,0,1-8.52-8.52V171.977a8.529,8.529,0,0,1,8.52-8.52h81.028a8.529,8.529,0,0,1,8.52,8.52v32.6h-1v-32.6a7.526,7.526,0,0,0-7.517-7.517H235.465a7.526,7.526,0,0,0-7.517,7.517v80.215a7.526,7.526,0,0,0,7.517,7.517h45.46Z" transform="translate(-215.733 -130.242)" fill="#ccc"/>
    <path id="Path_13045" data-name="Path 13045" d="M739.536,314.457a7.506,7.506,0,0,1,3.378,6.27v1.749h50.4a4.009,4.009,0,0,0,0-8.019Z" transform="translate(-471.434 -205.567)" fill="#e6e6e6"/>
    <path id="Path_13046" data-name="Path 13046" d="M747.331,284.466a4.014,4.014,0,0,1,4.009-4.009H768.38a4.009,4.009,0,0,1,0,8.019H751.34A4.014,4.014,0,0,1,747.331,284.466Z" transform="translate(-475.322 -188.607)" fill="#e6e6e6"/>
    <path id="Path_13047" data-name="Path 13047" d="M823.587,227.466a4.014,4.014,0,0,1,4.009-4.009h66.153a4.009,4.009,0,0,1,0,8.019H827.6a4.014,4.014,0,0,1-4.009-4.009Z" transform="translate(-513.361 -160.173)" fill="#e6e6e6"/>
    <path id="Path_13048" data-name="Path 13048" d="M881.087,193.466a4.014,4.014,0,0,1,4.009-4.009h8.52a4.009,4.009,0,0,1,0,8.019H885.1A4.014,4.014,0,0,1,881.087,193.466Z" transform="translate(-542.045 -143.212)" fill="#e6e6e6"/>
    <path id="Path_13049" data-name="Path 13049" d="M701.719,360.2h62.363a8.529,8.529,0,0,0,8.52-8.52V253.031a8.529,8.529,0,0,0-8.52-8.52H664.465a8.529,8.529,0,0,0-8.52,8.52v24.45h1v-24.45a7.526,7.526,0,0,1,7.517-7.517h99.617a7.526,7.526,0,0,1,7.517,7.517v98.648a7.526,7.526,0,0,1-7.517,7.517H701.719Z" transform="translate(-429.735 -170.675)" fill="#ccc"/>
    <path id="Path_13050" data-name="Path 13050" d="M843.834,260.711h45.46a8.529,8.529,0,0,0,8.52-8.52V171.977a8.529,8.529,0,0,0-8.52-8.52H808.266a8.529,8.529,0,0,0-8.52,8.52v32.6h1v-32.6a7.526,7.526,0,0,1,7.517-7.517h81.029a7.526,7.526,0,0,1,7.517,7.517v80.215a7.526,7.526,0,0,1-7.517,7.517h-45.46Z" transform="translate(-501.469 -130.242)" fill="#ccc"/>
    <path id="Path_13051" data-name="Path 13051" d="M602.774,309.967H482.617a8.537,8.537,0,0,0-8.52,8.52V437.507a8.529,8.529,0,0,0,8.52,8.52H602.774a8.529,8.529,0,0,0,8.52-8.52V318.487A8.529,8.529,0,0,0,602.774,309.967Zm7.517,127.54a7.527,7.527,0,0,1-7.517,7.517H482.617a7.527,7.527,0,0,1-7.517-7.517V318.487a7.529,7.529,0,0,1,7.517-7.517H602.774a7.527,7.527,0,0,1,7.517,7.517Z" transform="translate(-339.022 -203.327)" fill="#3f3d56"/>
    <path id="Path_13052" data-name="Path 13052" d="M607.22,394.476H505.985a4.009,4.009,0,1,1,0-8.019H607.22a4.009,4.009,0,0,1,0,8.019Z" transform="translate(-352.929 -241.484)" fill="#ccc"/>
    <path id="Path_13053" data-name="Path 13053" d="M607.086,360.476h-43.6a4.009,4.009,0,0,1,0-8.019h43.6a4.009,4.009,0,0,1,0,8.019Z" transform="translate(-381.612 -224.523)" fill="#6c63ff"/>
    <path id="Path_13054" data-name="Path 13054" d="M549.086,442.476h-43.6a4.009,4.009,0,1,1,0-8.019h43.6a4.009,4.009,0,0,1,0,8.019Z" transform="translate(-352.68 -265.428)" fill="#ccc"/>
    <path id="Path_13055" data-name="Path 13055" d="M549.086,477.476h-43.6a4.009,4.009,0,0,1,0-8.019h43.6a4.009,4.009,0,0,1,0,8.019Z" transform="translate(-352.68 -282.887)" fill="#ccc"/>
    <path id="Path_13056" data-name="Path 13056" d="M549.086,512.476h-43.6a4.009,4.009,0,0,1,0-8.019h43.6a4.009,4.009,0,0,1,0,8.019Z" transform="translate(-352.68 -300.347)" fill="#ccc"/>
    <circle id="Ellipse_44" data-name="Ellipse 44" cx="7.482" cy="7.482" r="7.482" transform="translate(243.303 165.521)" fill="#6c63ff"/>
    <path id="Path_395" data-name="Path 395" d="M700.974,442.417a.777.777,0,0,1-.467-.155l-.008-.006-1.758-1.345a.781.781,0,1,1,.951-1.24l1.139.873,2.691-3.511a.781.781,0,0,1,1.1-.145h0l-.017.023.017-.023a.782.782,0,0,1,.144,1.1l-3.166,4.128a.782.782,0,0,1-.622.3Z" transform="translate(-450.931 -266.56)" fill="#fff"/>
    <path id="Path_13057" data-name="Path 13057" d="M313.211,120.439A11.629,11.629,0,1,1,324.84,108.81,11.629,11.629,0,0,1,313.211,120.439Zm0-22.256a10.627,10.627,0,1,0,10.627,10.627,10.627,10.627,0,0,0-10.627-10.627Z" transform="translate(-252.964 -97.181)" fill="#ccc"/>
    <path id="Path_395-2" data-name="Path 395" d="M318.825,120.432a1.154,1.154,0,0,1-.694-.231l-.012-.009-2.615-2a1.162,1.162,0,1,1,1.414-1.845l1.694,1.3,4-5.222a1.162,1.162,0,0,1,1.629-.215h0l-.025.035.026-.035a1.163,1.163,0,0,1,.215,1.629l-4.708,6.14a1.162,1.162,0,0,1-.924.453Z" transform="translate(-259.682 -104.558)" fill="#ccc"/>
    <path id="Path_13058" data-name="Path 13058" d="M460.407,201.439a11.629,11.629,0,1,1,11.629-11.629A11.629,11.629,0,0,1,460.407,201.439Zm0-22.256a10.627,10.627,0,1,0,10.627,10.627,10.627,10.627,0,0,0-10.627-10.627Z" transform="translate(-326.392 -137.587)" fill="#ccc"/>
    <path id="Path_395-3" data-name="Path 395" d="M466.021,201.432a1.154,1.154,0,0,1-.694-.231l-.012-.009-2.615-2a1.162,1.162,0,0,1,1.414-1.845l1.694,1.3,4-5.222a1.162,1.162,0,0,1,1.629-.215h0l-.025.035.026-.035a1.163,1.163,0,0,1,.215,1.629l-4.708,6.14a1.162,1.162,0,0,1-.924.453Z" transform="translate(-333.109 -144.964)" fill="#ccc"/>
    <circle id="Ellipse_44-2" data-name="Ellipse 44" cx="7.482" cy="7.482" r="7.482" transform="translate(243.303 183.062)" fill="#6c63ff"/>
    <path id="Path_395-4" data-name="Path 395" d="M700.974,477.417a.776.776,0,0,1-.467-.155l-.008-.006-1.758-1.345a.781.781,0,1,1,.951-1.24l1.139.873,2.691-3.511a.781.781,0,0,1,1.1-.145h0l-.017.023.017-.023a.782.782,0,0,1,.144,1.1l-3.166,4.128a.781.781,0,0,1-.622.3Z" transform="translate(-450.931 -284.019)" fill="#fff"/>
    <circle id="Ellipse_44-3" data-name="Ellipse 44" cx="7.482" cy="7.482" r="7.482" transform="translate(243.303 200.637)" fill="#6c63ff"/>
    <path id="Path_395-5" data-name="Path 395" d="M700.974,512.488a.776.776,0,0,1-.467-.155l-.008-.006-1.758-1.345a.781.781,0,1,1,.951-1.24l1.139.873,2.691-3.511a.781.781,0,0,1,1.1-.145h0l-.017.023.017-.023a.782.782,0,0,1,.144,1.1l-3.166,4.128a.781.781,0,0,1-.621.3Z" transform="translate(-450.931 -301.514)" fill="#fff"/>
    <path id="Path_13059" data-name="Path 13059" d="M599.572,266.439c-7.893-.135-11.48-6.123-11.479-11.63s3.588-11.495,11.463-11.628h.017c7.876.134,11.463,6.123,11.463,11.63S607.447,266.306,599.572,266.439Zm-.008-22.256c-7.193.126-10.469,5.6-10.469,10.626s3.278,10.505,10.477,10.628c7.181-.122,10.46-5.594,10.461-10.626s-3.276-10.5-10.469-10.628Z" transform="translate(-395.887 -170.012)" fill="#6c63ff"/>
    <path id="Path_13060" data-name="Path 13060" d="M610.593,262.638c2.012,3.495-3.51,4.86-5.623,2.754l.529-1.131c3.435,2.967,6.461-2.172,1.215-1.684v-1.239c4.8.387,2.106-4.449-1.095-1.588l-.517-1.131c2.608-2.707,8.464.566,4.33,3.271A2.061,2.061,0,0,1,610.593,262.638Z" transform="translate(-404.307 -177.208)" fill="#6c63ff"/>
    <path id="Path_13061" data-name="Path 13061" d="M740.407,201.439a11.629,11.629,0,1,1,11.629-11.629A11.629,11.629,0,0,1,740.407,201.439Zm0-22.256a10.627,10.627,0,1,0,10.627,10.627,10.627,10.627,0,0,0-10.627-10.627Z" transform="translate(-466.067 -137.587)" fill="#ccc"/>
    <path id="Path_13062" data-name="Path 13062" d="M752,199.734h-1.215v1.672h-1.515v-1.672h-3.729v-1.155l4.005-5.737h1.239v5.677H752Zm-2.73-1.215v-3.26l-2.261,3.26Z" transform="translate(-474.428 -144.901)" fill="#ccc"/>
    <path id="Path_13063" data-name="Path 13063" d="M886.012,120.439a11.629,11.629,0,1,1,11.629-11.629A11.629,11.629,0,0,1,886.012,120.439Zm0-22.256a10.627,10.627,0,1,0,10.627,10.627,10.627,10.627,0,0,0-10.627-10.627Z" transform="translate(-538.7 -97.181)" fill="#ccc"/>
    <path id="Path_13064" data-name="Path 13064" d="M896.314,115.18a2.388,2.388,0,0,1,.95.962,2.938,2.938,0,0,1,.337,1.425,2.839,2.839,0,0,1-.385,1.486,2.577,2.577,0,0,1-1.107,1,3.743,3.743,0,0,1-1.672.355,4.818,4.818,0,0,1-1.588-.271,3.688,3.688,0,0,1-1.287-.728l.517-1.131a3.894,3.894,0,0,0,2.381.89,1.551,1.551,0,0,0,1.221-2.688,1.611,1.611,0,0,0-1.173-.427,2.433,2.433,0,0,0-.95.186,2.247,2.247,0,0,0-.782.547h-.938v-5.04H897.2v1.2h-3.849v2.333a2.659,2.659,0,0,1,1.54-.445,2.86,2.86,0,0,1,1.419.343Z" transform="translate(-547.271 -104.447)" fill="#ccc"/>
    <path id="Path_13065" data-name="Path 13065" d="M352.32,593.337a5.04,5.04,0,0,1,3.348-6.965l1.519-17.844,7.307,5.764-2.563,16.062a5.067,5.067,0,0,1-9.611,2.983Z" transform="translate(-278.05 -332.308)" fill="#ffb8b8"/>
    <path id="Path_13066" data-name="Path 13066" d="M359.315,537.907a2.254,2.254,0,0,1-1.956-2.14l-.846-20.25a44.653,44.653,0,0,1,4.315-21.1l7.5-15.719a6.731,6.731,0,0,1,5.055-3.513,6.455,6.455,0,0,1,5.63,2,8.468,8.468,0,0,1,.964,1.244,6.476,6.476,0,0,1,.342,6.166l-11.5,31.423-.885,20.471a2.256,2.256,0,0,1-2.52,2.142l-6.068-.724Z" transform="translate(-280.347 -285.715)" fill="#6c63ff"/>
    <path id="Path_13071" data-name="Path 13071" d="M321.688,651.377l34.093-111.316,25.877-5.074.091.148c17.108,27.838,22.819,70.363,26.441,115.421.092,1.223-.8.693-2.025.821H394.776a15.61,15.61,0,0,1-2.4,0l-20.854-72.682a.752.752,0,0,0-1.416-.1l-34.227,72.783Z" transform="translate(-262.719 -315.576)" fill="#2f2e41"/>
    <circle id="Ellipse_3888" data-name="Ellipse 3888" cx="12.309" cy="12.309" r="12.309" transform="translate(94.122 155.815)" fill="#ffb8b8"/>
    <path id="Path_13072" data-name="Path 13072" d="M380.577,508.424l-.084-.176a62.384,62.384,0,0,1-5.2-26.028,17.87,17.87,0,0,1,17.495-17.181h0a17.841,17.841,0,0,1,17.862,14.433,53.544,53.544,0,0,1-.118,22.712l-.037.156-.157.032Z" transform="translate(-289.717 -280.682)" fill="#6c63ff"/>
    <path id="Path_13073" data-name="Path 13073" d="M492.961,565.807a5.04,5.04,0,0,1-4.042-6.586l-14.178-10.942,8.8-3.02,12.114,10.854a5.067,5.067,0,0,1-2.7,9.695Z" transform="translate(-339.344 -320.7)" fill="#ffb8b8"/>
    <path id="Path_13074" data-name="Path 13074" d="M425.911,504.09l-.033-.053-14.946-24.205a6.73,6.73,0,0,1-.215-6.152,6.453,6.453,0,0,1,4.73-3.651h0a8.446,8.446,0,0,1,1.567-.137,6.475,6.475,0,0,1,5.369,3.052l20.185,26.688L459.3,511.465a2.255,2.255,0,0,1,.436,3.279l-3.895,4.709a2.247,2.247,0,0,1-2.879.508Z" transform="translate(-307.086 -283.105)" fill="#6c63ff"/>
    <path id="Path_13075" data-name="Path 13075" d="M344.1,410.31c.907-1.492,2.909-1.914,4.647-1.744s3.428.781,5.175.768c4.849-.038,8.592-5.948,6.554-10.348-1.672-3.608-5.848-5.193-9.626-6.437-7.92-2.607-17.019-5.113-24.206-.885a15.04,15.04,0,0,0-7.239,13.4c.162,3.327,1.436,6.745.358,9.9-1.243,3.636-5.185,5.587-8.911,6.531-6.53,1.654-13.416,1.388-19.987,2.872s-13.305,5.424-15.076,11.924c-1.163,4.269.051,8.865,2.061,12.807a33.17,33.17,0,0,0,46.274,13.573c7.944-4.639,13.68-12.479,17.1-21.019a70.38,70.38,0,0,0,4.068-15.459,34.387,34.387,0,0,0-1.271-14.773,1.358,1.358,0,0,1,.08-1.108Z" transform="translate(-239.874 -242.95)" fill="#2f2e41"/>
  </g>
</svg>
