<svg xmlns="http://www.w3.org/2000/svg" width="181.246" height="132.846" viewBox="0 0 181.246 132.846">
  <g id="Group_11098" data-name="Group 11098" transform="translate(-66.765 0)">
    <path id="Path_13004" data-name="Path 13004" d="M213.855,139.837c12.553-.438,24.509-4.421,35.919-8.77s22.725-9.188,34.978-11.5c7.881-1.485,16.894-1.695,23.243,2.458,6.112,4,8.086,10.9,9.147,17.3.8,4.816,1.269,9.884-.919,14.393-1.521,3.131-4.217,5.762-6.083,8.761-6.492,10.433-1.9,23.3,5.13,33.485,3.3,4.78,7.128,9.342,9.675,14.425s3.724,10.915,1.5,16.1c-2.207,5.148-7.47,9.007-13.17,11.723-7.421,3.537-15.689,5.456-24.307,6.632l-131.978-.028V204.592a15.081,15.081,0,0,0,4.486-5.952c2.378-5.573-1.028-11.783-4.486-16.951V124.983c8.852-2.331,19.437-1.015,25.487,5.039C189.838,137.374,202.769,140.205,213.855,139.837Z" transform="translate(-90.219 -112.003)" fill="#6c63ff" opacity="0.1"/>
    <path id="Path_13111" data-name="Path 13111" d="M1.653,0A1.638,1.638,0,0,1,3.305,1.814H0A1.638,1.638,0,0,1,1.653,0Z" transform="translate(213.381 131.004)" fill="#3f3d56"/>
    <ellipse id="Ellipse_3882" data-name="Ellipse 3882" cx="1.653" cy="2.128" rx="1.653" ry="2.128" transform="translate(213.381 128.403)" fill="#3f3d56"/>
    <ellipse id="Ellipse_3883" data-name="Ellipse 3883" cx="1.653" cy="2.128" rx="1.653" ry="2.128" transform="translate(213.381 125.805)" fill="#3f3d56"/>
    <ellipse id="Ellipse_3884" data-name="Ellipse 3884" cx="1.653" cy="2.128" rx="1.653" ry="2.128" transform="translate(213.381 123.204)" fill="#3f3d56"/>
    <ellipse id="Ellipse_3885" data-name="Ellipse 3885" cx="1.653" cy="2.128" rx="1.653" ry="2.128" transform="translate(213.381 120.604)" fill="#3f3d56"/>
    <ellipse id="Ellipse_3886" data-name="Ellipse 3886" cx="1.653" cy="2.128" rx="1.653" ry="2.128" transform="translate(213.381 118.003)" fill="#3f3d56"/>
    <path id="Path_13005" data-name="Path 13005" d="M180.691,567.346a7.7,7.7,0,0,1-.617-.891l4.345-.7-4.7.034a7.67,7.67,0,0,1-.151-6.168l6.3,3.214-5.819-4.194a7.983,7.983,0,0,1,14.055.671,7.676,7.676,0,0,1-.974,8.04,7.834,7.834,0,0,1,.9,1.42l-5.641,2.879,6.013-1.983a7.674,7.674,0,0,1-1.276,7.31,7.689,7.689,0,0,1-.85,10.531,8.021,8.021,0,0,1-10.748,0,7.689,7.689,0,0,1-.85-10.531,7.68,7.68,0,0,1,0-9.626Z" transform="translate(28.154 -465.009)" fill="#6c63ff"/>
    <path id="Path_13006" data-name="Path 13006" d="M194.839,645.515a7.669,7.669,0,0,1-1.7,4.812,7.689,7.689,0,0,1-.85,10.531,8.021,8.021,0,0,1-10.748,0,7.689,7.689,0,0,1-.85-10.531C179.64,649.006,194.839,644.644,194.839,645.515Z" transform="translate(28.142 -538.368)" opacity="0.1"/>
    <path id="Path_13007" data-name="Path 13007" d="M583.607,606.757a5.368,5.368,0,0,1-1.975,4,3.2,3.2,0,0,1-4.217-.326,4.6,4.6,0,0,1-.7-1.5c-.809-2.513-1.383-5.262-.5-7.75,2-.128,4.318-1.052,5.819.572A6.7,6.7,0,0,1,583.607,606.757Z" transform="translate(-437.61 -502.279)" fill="#3f3d56"/>
    <path id="Path_13008" data-name="Path 13008" d="M571,521.213a47.853,47.853,0,0,1,.671,6.658c-.018.862-.111,1.716-.113,2.581a12.558,12.558,0,0,0,1.746,6.4,2.15,2.15,0,0,0,.477.606,1.555,1.555,0,0,0,1.668.055,3.249,3.249,0,0,0,1.185-1.264c1.445-2.433,1.486-5.39,2.058-8.149.438-2.111,1.206-4.156,1.484-6.292.18-1.375.153-2.776.44-4.134.087-.41.332-1.026.493-1.63a2.411,2.411,0,0,0,.078-1.434c-.308-.745-1.319-.456-1.976-.41a46.291,46.291,0,0,1-6.956-.017.816.816,0,0,0-.65.133.781.781,0,0,0-.155.276,9.124,9.124,0,0,0-.421,1.525A16.66,16.66,0,0,0,571,521.213Z" transform="translate(-434.281 -432.108)" fill="#fabdbd"/>
    <g id="Group_11093" data-name="Group 11093" transform="translate(137.606 82.002)" opacity="0.1">
      <path id="Path_13009" data-name="Path 13009" d="M600.13,514.47a1.736,1.736,0,0,1,.359,0q1.664.132,3.33.137Q601.975,514.612,600.13,514.47Z" transform="translate(-600.13 -514.394)"/>
      <path id="Path_13010" data-name="Path 13010" d="M571.462,537.516a3.249,3.249,0,0,0,1.185-1.264c1.445-2.433,1.486-5.39,2.058-8.149.438-2.11,1.206-4.156,1.484-6.291.18-1.375.153-2.776.44-4.133.087-.41.332-1.026.493-1.63a2.411,2.411,0,0,0,.078-1.434.827.827,0,0,0-.776-.5c.491-.032.97.025,1.164.5a2.411,2.411,0,0,1-.078,1.434c-.161.6-.405,1.22-.493,1.63-.287,1.357-.26,2.759-.44,4.133-.277,2.137-1.045,4.183-1.484,6.291-.572,2.759-.613,5.72-2.058,8.149a3.247,3.247,0,0,1-1.185,1.264,1.747,1.747,0,0,1-1.016.2A1.808,1.808,0,0,0,571.462,537.516Z" transform="translate(-568.296 -514.111)"/>
    </g>
    <path id="Path_13011" data-name="Path 13011" d="M625.477,516.97a12.656,12.656,0,0,1,.97,5.529c-.194,7.626,2.91,23.641,2.91,23.641h2.715s.388-17.731,0-19.256.194-6.864.776-14.3a37.548,37.548,0,0,0-1.377-12.738c-.217-.763-.369-1.18-.369-1.18s-4.461-6.482-6.983-3.432a7.492,7.492,0,0,0-1,3.949C622.777,505.147,624.585,515.214,625.477,516.97Z" transform="translate(-496.097 -416.171)" fill="#fabdbd"/>
    <path id="Path_13012" data-name="Path 13012" d="M638.6,499.189a7.449,7.449,0,0,1,1-3.948,2.014,2.014,0,0,1,1.9-.8,2.074,2.074,0,0,0-1.323.8,7.492,7.492,0,0,0-1,3.948c-.345,5.964,1.463,16.03,2.355,17.786a12.655,12.655,0,0,1,.97,5.529c-.194,7.626,2.909,23.641,2.909,23.641h-.582s-3.1-16.015-2.909-23.641a12.657,12.657,0,0,0-.97-5.529C640.066,515.22,638.258,505.153,638.6,499.189Z" transform="translate(-511.578 -416.177)" opacity="0.1"/>
    <path id="Path_13013" data-name="Path 13013" d="M623.207,753.08a2.5,2.5,0,0,1,.555.595c.347.644-.146,1.415-.673,1.927a5.7,5.7,0,0,0-.955,1.023H616.87a4.937,4.937,0,0,1,.109-.672,9.033,9.033,0,0,1,2.547-4.576C621.027,750.092,622.2,752.151,623.207,753.08Z" transform="translate(-485.82 -623.807)" fill="#3f3d56"/>
    <path id="Path_13014" data-name="Path 13014" d="M344.419,217.761a4.864,4.864,0,0,1,.3-5.4,9.382,9.382,0,0,1,4.715-3.22,13.49,13.49,0,0,1,7.735-.511,38.347,38.347,0,0,1,5.741,2.433,25.061,25.061,0,0,0,10.722,2.1c4.095-.112,8.581-1.144,12.016,1.056,6.288,4.021,3.491,14.965,9.44,19.447,1.6,1.209,3.623,1.737,5.408,2.669s3.476,2.555,3.433,4.541a5.228,5.228,0,0,1-.97,2.669,12.625,12.625,0,0,1-10.577,5.586,13.535,13.535,0,0,1-10.658-5.582,8.223,8.223,0,0,0-2.009-2.337c-1.746-1.125-4.046-.337-6.129-.17a9.914,9.914,0,0,1-10.2-7.54c-.388-1.916-.32-4.206-1.889-5.409-1.267-.97-3.049-.763-4.655-.928A9.531,9.531,0,0,1,350,222.72c-.731-1.077-.817-2.364-1.814-3.213C347.109,218.575,345.447,219.263,344.419,217.761Z" transform="translate(-212.909 -184.588)" fill="#3f3d56"/>
    <g id="Group_11094" data-name="Group 11094" transform="translate(131.022 23.688)" opacity="0.1">
      <path id="Path_13015" data-name="Path 13015" d="M454.176,232.77a25.005,25.005,0,0,1-5.076-.381c.462.013.927.013,1.391,0,3.214-.088,6.669-.74,9.667.046C458.18,232.453,456.133,232.717,454.176,232.77Z" transform="translate(-420.589 -227.514)"/>
      <path id="Path_13016" data-name="Path 13016" d="M402.567,380.474a8.223,8.223,0,0,1,2.009,2.337A13.631,13.631,0,0,0,412.232,388c-.227.01-.454.015-.683.013a13.529,13.529,0,0,1-10.658-5.582,8.222,8.222,0,0,0-2.009-2.337L398.73,380A5.522,5.522,0,0,1,402.567,380.474Z" transform="translate(-362.893 -347.157)"/>
      <path id="Path_13017" data-name="Path 13017" d="M573.569,212.336a9.422,9.422,0,0,1,4.715-3.22,13.49,13.49,0,0,1,7.735-.511c.058.013.115.031.171.046a15.073,15.073,0,0,0-4.221.847,9.422,9.422,0,0,0-4.715,3.22,4.868,4.868,0,0,0-.3,5.4c1.028,1.508,2.69.82,3.778,1.748,1,.848,1.082,2.135,1.814,3.213a9.956,9.956,0,0,0,5.656,4.233c-.817-.1-1.678-.084-2.492-.168a9.531,9.531,0,0,1-6.849-4.446c-.731-1.077-.816-2.364-1.813-3.213-1.088-.928-2.751-.24-3.779-1.748A4.857,4.857,0,0,1,573.569,212.336Z" transform="translate(-572.58 -208.252)"/>
      <path id="Path_13018" data-name="Path 13018" d="M498.25,309.213c1.6.164,3.379-.042,4.655.928,1.569,1.2,1.494,3.493,1.889,5.409a9.857,9.857,0,0,0,6.731,7.14l-.231.021a9.915,9.915,0,0,1-10.2-7.54c-.388-1.916-.32-4.206-1.889-5.409a3.529,3.529,0,0,0-1.2-.572C498.087,309.192,498.167,309.205,498.25,309.213Z" transform="translate(-481.442 -289.946)"/>
    </g>
    <path id="Path_13019" data-name="Path 13019" d="M444.953,162.255s4.655,9.151,6.207,12.583,15.711,8.579,17.651,8.77a2.516,2.516,0,0,1,1.385.656,7.479,7.479,0,0,1,1.719,2.585,57.978,57.978,0,0,0,.194,13.727c.019.166.037.332.052.492.846,8.164-.925,10.089-.925,10.089s18.815,7.054,18.233-2.1a40.773,40.773,0,0,1,.025-6.745A27.9,27.9,0,0,1,490.606,197c.46-1.581,1.009-3.314,1.577-5.674a24.586,24.586,0,0,1,1.078-3.46c.014-.034.027-.069.039-.1.97-2.366,1.94-3.131,2.494-3.378a8.424,8.424,0,0,0,1.49-.824,78.059,78.059,0,0,0,9.064-7.489c4.655-4.576,9.31-15.443,9.31-15.443s1.358-6.292-1.746-11.439-1.746,10.1-1.746,10.1-5.625,7.436-6.983,10.867a5.767,5.767,0,0,1-2.716,3.138,32.3,32.3,0,0,0-4.294,2.639,28.773,28.773,0,0,1-9.818,4.627,6.649,6.649,0,0,1-1.022.086,1.067,1.067,0,0,1-.853-.381c-.582-.673-.568-2.122-.434-3.314a16.579,16.579,0,0,1,.318-1.836s-6.3-3.908-6.11.858a5.236,5.236,0,0,1-.147,1.567,2.735,2.735,0,0,1-1.879,2.021,4.734,4.734,0,0,1-2.328.074,2.3,2.3,0,0,1-.687-.231,47.568,47.568,0,0,0-8.147-2.288c-1.746-.191-10.474-4.385-10.474-4.385l-9.5-12.965s.194-7.626-3.685-10.677S444.953,162.255,444.953,162.255Z" transform="translate(-343.988 -135.908)" fill="#fabdbd"/>
    <g id="Group_11095" data-name="Group 11095" transform="translate(98.017 13.629)" opacity="0.1">
      <path id="Path_13020" data-name="Path 13020" d="M667.161,385a37.38,37.38,0,0,1,.223,4.614c-.019-1.007-.087-2.156-.223-3.47-.016-.16-.033-.326-.052-.492a73.488,73.488,0,0,1-.485-8.844,75.294,75.294,0,0,0,.485,7.7C667.12,384.676,667.145,384.842,667.161,385Z" transform="translate(-637.006 -334.614)"/>
      <path id="Path_13021" data-name="Path 13021" d="M594.79,289.07c.13.074.194.12.194.12a16.071,16.071,0,0,0-.372,2.479A11.5,11.5,0,0,1,594.79,289.07Z" transform="translate(-550.633 -263.602)"/>
      <path id="Path_13022" data-name="Path 13022" d="M461.793,176.415c-.1-1.335-.237-3.727-.209-5.855.033,2.845.291,5.746.291,5.746Z" transform="translate(-391.722 -167.687)"/>
      <path id="Path_13023" data-name="Path 13023" d="M596.711,466.53a1.233,1.233,0,0,0,.014.223c.582,9.151-18.233,2.1-18.233,2.1a3.083,3.083,0,0,0,.491-.969C581.817,468.873,596.057,473.483,596.711,466.53Z" transform="translate(-549.263 -407.229)"/>
      <path id="Path_13024" data-name="Path 13024" d="M672.007,167.065s4.655,9.151,6.207,12.583,15.711,8.579,17.651,8.77a2.516,2.516,0,0,1,1.385.656,7.481,7.481,0,0,1,1.719,2.585s-.047.311-.1.9a7.082,7.082,0,0,0-1.616-2.343,2.516,2.516,0,0,0-1.385-.656c-1.94-.191-16.1-5.338-17.651-8.77s-6.207-12.583-6.207-12.583-3.28-9.79-2.919-12.719C669.386,159.242,672.007,167.065,672.007,167.065Z" transform="translate(-669.06 -155.49)"/>
      <path id="Path_13025" data-name="Path 13025" d="M442.144,237.581a27.907,27.907,0,0,1,1.113-5.312c.46-1.581,1.009-3.314,1.577-5.674a24.578,24.578,0,0,1,1.078-3.46c.014-.034.027-.069.039-.1.97-2.366,1.94-3.131,2.494-3.378a8.427,8.427,0,0,0,1.49-.824A78.053,78.053,0,0,0,459,211.343c4.655-4.576,9.31-15.443,9.31-15.443a16.954,16.954,0,0,0,.287-2.78,18.076,18.076,0,0,1-.287,3.924s-4.655,10.867-9.31,15.443a78.055,78.055,0,0,1-9.064,7.489,8.427,8.427,0,0,1-1.5.824c-.553.248-1.521,1.012-2.494,3.378-.012.032-.025.067-.039.1a24.575,24.575,0,0,0-1.073,3.46c-.568,2.36-1.117,4.093-1.577,5.674a27.9,27.9,0,0,0-1.113,5.312c-.081.8-.13,1.664-.144,2.641A32.673,32.673,0,0,1,442.144,237.581Z" transform="translate(-394.657 -185.946)"/>
    </g>
    <path id="Path_13026" data-name="Path 13026" d="M559.895,326.412a11.3,11.3,0,0,1,.776,1.5,8.936,8.936,0,0,1,.349,2.52,19.9,19.9,0,0,0,.551,3.531,3.847,3.847,0,0,0,.194.625,1.527,1.527,0,0,0,.588.7,4.246,4.246,0,0,0,.658.353c2.7,1.239,5.644,2.334,8.591,1.907a12.651,12.651,0,0,0,3.575-1.182c1.067-.509,2.273-1.113,3.379-.69h0a1.725,1.725,0,0,0,.541.166.524.524,0,0,0,.109-.009c.365-.069.365-1.277.448-1.634.318-1.369.367-2.479.557-3.668a11.868,11.868,0,0,1,.468-1.939,22.535,22.535,0,0,0,1.01-7.184c0-.12.873,0,1.164-.011.074,0,.114-.011.1-.036a.391.391,0,0,0-.058-.065.892.892,0,0,0-.347-.17l-.229-.067c-1.2-.334-2.521-.473-3.418-1.3a4.442,4.442,0,0,1-1.123-3.474,20.334,20.334,0,0,0,.178-2.189,6.644,6.644,0,0,1-1.022.086,1.067,1.067,0,0,1-.854-.381,14.927,14.927,0,0,0-.838,1.907,13.067,13.067,0,0,1-1.065,2.357,4.081,4.081,0,0,1-3.631,1.828,3.354,3.354,0,0,1-3-2.574c-.223-1.211.295-2.953.283-4.212a4.734,4.734,0,0,1-2.328.074,2.039,2.039,0,0,0-.083.238c-.436,1.472-1.018,3.161-2.483,3.684-.947.336-2.066.084-2.941.572a1.877,1.877,0,0,0-.194.126,2.125,2.125,0,0,0-.514.536,4.255,4.255,0,0,0-.623,1.922A10.508,10.508,0,0,0,559.895,326.412Z" transform="translate(-433.6 -269.43)" fill="#6c63ff"/>
    <path id="Path_13027" data-name="Path 13027" d="M594.56,285.722a6.71,6.71,0,0,0,5.939-.589,16.564,16.564,0,0,1,.318-1.836s-6.3-3.908-6.11.858A5.241,5.241,0,0,1,594.56,285.722Z" transform="translate(-458.441 -244.081)" opacity="0.1"/>
    <ellipse id="Ellipse_3887" data-name="Ellipse 3887" cx="6.595" cy="6.482" rx="6.595" ry="6.482" transform="translate(131.904 28.73)" fill="#fabdbd"/>
    <path id="Path_13028" data-name="Path 13028" d="M705.1,338.787s-12.8-8.008-52.565.572a187.645,187.645,0,0,1-30.708,4.14v8.585c11.1.252,22.6-.109,29.544-2.049,17.069-4.766,41.367-7.516,49.876-.135Z" transform="translate(-555.06 -287.464)" fill="#f86d70"/>
    <path id="Path_13031" data-name="Path 13031" d="M66.921,363.056s12.8,8.008,52.565-.572,37.823-1.716,37.823-1.716v-8.961s-19.591-4.766-36.659,0-41.367,7.516-49.876.135Z" transform="translate(87.396 -299.035)" fill="#f86d70"/>
    <path id="Path_13032" data-name="Path 13032" d="M66.921,363.056s12.8,8.008,52.565-.572,37.823-1.716,37.823-1.716v-8.961s-19.591-4.766-36.659,0-41.367,7.516-49.876.135Z" transform="translate(87.396 -299.035)" opacity="0.1"/>
    <path id="Path_13033" data-name="Path 13033" d="M68,364.293s12.414,8.008,52.177-.572,37.435-1.716,37.435-1.716l.194-8.2s-19.2-4.766-36.272,0-41.173,8.088-49.682.707Z" transform="translate(86.704 -300.654)" fill="#f86d70"/>
    <path id="Path_13034" data-name="Path 13034" d="M564.021,229.941c.194-1.19.493-2.688-.52-3.369a2.182,2.182,0,0,0-1.2-.305c-2.1-.021-4.1,1.415-6.157,1a3.442,3.442,0,0,1-2.678-2.607,3.381,3.381,0,0,1,1.32-3.47,7.049,7.049,0,0,1,2.82-1c2.6-.526,5.317-1.051,7.885-.381s4.915,2.932,4.71,5.529a7.736,7.736,0,0,1-1.414,3.432c-.512.8-2.506,4.576-3.474,4.633C563.947,233.472,563.887,230.719,564.021,229.941Z" transform="translate(-419.85 -193.655)" fill="#3f3d56"/>
    <path id="Path_13035" data-name="Path 13035" d="M571.974,461.7s13.384,3.241,17.845,0c0,0,1.94,7.436,1.358,11.249,0,0-9.5.572-10.474,1.144,0,0-.194-1.525-1.164-.763,0,0-3.3-3.813-9.31-.381C570.228,472.949,569.065,463.988,571.974,461.7Z" transform="translate(-444.145 -389.691)" fill="#6c63ff"/>
    <path id="Path_13036" data-name="Path 13036" d="M574.947,227.277a3.864,3.864,0,0,1,.432-.267,3.359,3.359,0,0,0-.684,3.327,3.443,3.443,0,0,0,2.583,2.253c2.056.419,4.06-1.016,6.156-1a2.183,2.183,0,0,1,1.2.305c1.012.681.716,2.179.522,3.369-.128.778-.076,3.531,1.286,3.457h.023c-.374.448-.724.751-.993.763-1.358.074-1.414-2.669-1.286-3.457.194-1.19.491-2.688-.522-3.369a2.183,2.183,0,0,0-1.2-.305c-2.1-.021-4.1,1.415-6.156,1a3.442,3.442,0,0,1-2.677-2.607,3.381,3.381,0,0,1,1.32-3.47Z" transform="translate(-440.015 -199.746)" opacity="0.1"/>
    <g id="Group_11096" data-name="Group 11096" transform="translate(231.156 16.818)" opacity="0.1">
      <path id="Path_13037" data-name="Path 13037" d="M50.06,173.874s14.5-5.994,16.4,4.816a2.593,2.593,0,0,1-.388,3.075s-.3-.745-1.7.027a7.365,7.365,0,0,1-1.583.631,3.619,3.619,0,0,1-2.254-.118h0s-4.77-.254-8.781-6.387c0,0-1.719-1.045-1.806-1.436l2.875.191a4.639,4.639,0,0,0,.97,3.31s-1.057-3.209-.549-3.3c.1-.019,1.519.166,1.519.166s-.367,3.6,1.552,5.457c0,0-1.781-3.659-1-5.392l2.12.4s-.582,3.783,1.517,5.985c0,0-1.724-3.889-1.059-5.866l2.033.671s-.491,3.7,1.265,5.529c0,0-1.532-4.692-.811-5.338a10.692,10.692,0,0,1,2.219,1.144s-.291,2.669.826,3.622c0,0-.687-3.241-.347-3.375a10.97,10.97,0,0,1,2.77,2.927,7.919,7.919,0,0,0-2.5-3.241,4.537,4.537,0,0,1,2.522.349s-.735-1.375-3.036-.723a10.132,10.132,0,0,0-2.046-1.144,9.947,9.947,0,0,1,3.749-.837s-1.686-.953-4.283.641l-2.025-.721s2.811-1.417,4.221-1.411c0,0-1.874-.711-4.748,1.272l-2.073-.418a16.636,16.636,0,0,1,3.9-1.727s-1.883-.292-4.5,1.632l-1.42-.118s1.719-.993,2.238-1.235.5-.4.5-.4a6.818,6.818,0,0,0-3.33,1.575A16.648,16.648,0,0,1,50.06,173.874Z" transform="translate(-49.953 -172.217)" fill="#6c63ff"/>
    </g>
    <g id="Group_11097" data-name="Group 11097" transform="translate(231.798 0)" opacity="0.1">
      <path id="Path_13038" data-name="Path 13038" d="M60.91,91.736s5.148-11.681,12.536-6.324A2.174,2.174,0,0,1,75,87.452s-.609-.276-.993.967a5.935,5.935,0,0,1-.582,1.262,2.9,2.9,0,0,1-1.395,1.188h0s-2.979,2.52-8.922,1.123a5.86,5.86,0,0,1-1.907.158l1.817-1.5a3.92,3.92,0,0,0,2.5,1.418s-2.489-1.316-2.238-1.655c.05-.069,1-.751,1-.751s1.868,2.341,4.073,2.377c0,0-3.179-1.178-3.722-2.641l1.492-.953s1.85,2.572,4.37,2.705c0,0-3.278-1.335-4.029-2.89l1.6-.74S69.908,90,72,90.095c0,0-3.629-1.929-3.573-2.717a8.54,8.54,0,0,1,1.984-.557s1.371,1.744,2.6,1.695c0,0-2.287-1.542-2.161-1.811a9.238,9.238,0,0,1,3.342.191,6.719,6.719,0,0,0-3.365-.522,3.628,3.628,0,0,1,1.7-1.2s-1.234-.406-2.223,1.27a8.531,8.531,0,0,0-1.88.463,7.781,7.781,0,0,1,1.746-2.6s-1.552.381-2.172,2.778l-1.62.707a10.876,10.876,0,0,1,1.7-3.2s-1.527.625-2.085,3.413l-1.472.913a13.157,13.157,0,0,1,1.313-3.2A5.258,5.258,0,0,0,64.1,89.206l-.912.724s.446-1.552.615-1.987.062-.515.062-.515a5.436,5.436,0,0,0-1.065,2.8A13.688,13.688,0,0,1,60.91,91.736Z" transform="translate(-60.91 -84.006)" fill="#6c63ff"/>
    </g>
  </g>
</svg>
